<?xml version="1.0" encoding="utf-8"?>
<!-- Generator: Adobe Illustrator 19.2.1, SVG Export Plug-In . SVG Version: 6.00 Build 0)  -->
<svg version="1.1" id="Layer_1" xmlns="http://www.w3.org/2000/svg" xmlns:xlink="http://www.w3.org/1999/xlink" x="0px" y="0px"
	 viewBox="0 0 300 100" style="enable-background:new 0 0 300 100;" xml:space="preserve">
<style type="text/css">
	.st0{fill:#6A787C;}
</style>
<g>
	<path class="st0" d="M53.3,45.1H60c-0.8-2.6-1.5-4.6-2.1-6s-1-2-1.4-2c-0.3,0-0.7,0.6-1.1,1.7C55,39.9,54.3,42,53.3,45.1
		 M40.3,59.4c0-0.7,0.1-1.2,0.4-1.7c0.2-0.4,0.8-0.8,1.7-1.3c0.8-0.3,1.3-0.8,1.6-1.3c0.3-0.6,0.7-1.5,1.2-2.9s1.3-3.9,2.5-7.7
		l0.6-1.9c3.1-9.5,4.7-15.2,5-17.2c0-0.1,0-0.2,0.1-0.4c0.4-2.8,1.6-4.2,3.7-4.2c1.2,0,2.2,0.2,3,0.6s1.5,1,2.1,1.8
		c0.8,1.2,1.7,3,2.7,5.3c1,2.4,2.5,6.6,4.5,12.6c0.5,1.7,1.2,3.9,2.1,6.6c1.3,4.3,2.3,6.8,2.8,7.6c0.2,0.3,0.6,0.6,1.1,0.7
		c0.2,0.1,0.4,0.1,0.5,0.2c0.4,0.2,0.6,0.5,0.8,1c0.2,0.4,0.3,0.9,0.3,1.3c0,1.5-0.7,2.6-2.1,3.3s-3.6,1-6.6,1
		c-3.4,0-5.8-0.3-7.2-0.8c-1.4-0.6-2-1.5-2-2.9c0-0.6,0.1-1,0.3-1.4s0.4-0.7,0.8-1c0.1-0.1,0.3-0.2,0.5-0.3c0.7-0.4,1.1-0.9,1.1-1.5
		c0-0.8-0.5-1.4-1.5-1.8c-1-0.4-2.6-0.5-4.9-0.5c-1.8,0-3,0.2-3.7,0.5s-1,1-1,1.8c0,0.4,0.1,0.7,0.2,1c0.1,0.2,0.5,0.5,1,0.7
		c0.6,0.3,1,0.6,1.2,1c0.2,0.3,0.3,0.8,0.3,1.5c0,1.3-0.5,2.2-1.6,2.9c-1.1,0.7-2.8,1-5.1,1c-2.1,0-3.7-0.3-4.8-0.9
		C40.9,61.5,40.3,60.6,40.3,59.4"/>
	<path class="st0" d="M115.2,54.4c0,0.8,0.2,1.7,0.7,2.6c0.5,0.9,0.7,1.6,0.7,2.1c0,1.4-0.5,2.4-1.5,3s-2.6,1-4.7,1
		s-3.6-0.3-4.7-0.9c-1-0.6-1.5-1.5-1.5-2.8c0-0.6,0.2-1.4,0.6-2.3c0.1-0.3,0.2-0.4,0.2-0.6c0.2-0.5,0.3-1.4,0.4-2.6
		c0.1-1.2,0.1-3.2,0.1-6c0-2.4-0.1-4-0.4-4.9s-0.7-1.4-1.4-1.4c-0.6,0-1.1,0.4-1.4,1.2s-0.4,2.1-0.4,3.9c0,2.4,0,4.4,0.1,5.8
		c0.1,1.4,0.2,2.5,0.3,3.1c0,0.1,0.1,0.3,0.2,0.5c0.4,1,0.7,1.9,0.7,2.8c0,1.4-0.5,2.5-1.5,3.1s-2.6,0.9-4.8,0.9
		c-2.2,0-3.8-0.3-4.7-0.8c-0.9-0.6-1.4-1.5-1.4-2.8c0-0.7,0.3-1.6,0.8-2.6c0.2-0.3,0.3-0.5,0.3-0.7c0.2-0.4,0.3-0.9,0.4-1.7
		s0.1-2.4,0.1-4.9c0-3.1-0.1-5.2-0.4-6.2c-0.3-1.1-0.8-1.6-1.5-1.6c-0.6,0-1,0.4-1.2,1.3c-0.2,0.9-0.3,2.8-0.3,5.8v4.7
		c0,1.1,0.1,2.2,0.4,3.4c0.3,1.1,0.4,1.9,0.4,2.1c0,1.4-0.5,2.4-1.4,3.1c-1,0.7-2.5,1-4.6,1c-2.2,0-3.9-0.3-4.9-0.9
		c-1-0.6-1.5-1.6-1.5-3c0-0.7,0.3-1.5,0.9-2.2c0.3-0.3,0.4-0.5,0.6-0.7c0.3-0.4,0.4-1.1,0.5-2.2c0.1-1.1,0.2-3.2,0.2-6.4
		c0-2.4-0.1-4-0.2-4.9s-0.3-1.5-0.5-1.8c-0.1-0.1-0.3-0.3-0.5-0.6c-0.6-0.8-1-1.5-1-2.2c0-0.9,0.3-1.6,0.8-2.2
		c0.5-0.6,1.5-1.2,2.9-1.9c1.1-0.6,2.2-1,3.4-1.3c1.1-0.3,2.1-0.5,2.8-0.5c0.4,0,0.8,0.1,1,0.3s0.4,0.5,0.5,0.9
		c0.1,0.5,0.2,1.3,0.2,2.4c0,1.1,0.2,1.7,0.6,1.7c0.2,0,0.5-0.3,0.8-0.9c0.3-0.6,0.5-1,0.7-1.3c0.7-1,1.5-1.8,2.5-2.3
		c0.9-0.5,2-0.8,3.1-0.8c0.9,0,1.7,0.2,2.4,0.6c0.7,0.4,1.3,1,1.8,1.8c0.2,0.4,0.5,0.9,0.8,1.6c0.3,0.7,0.5,1,0.7,1s0.4-0.3,0.8-0.8
		c0.4-0.6,0.6-1,0.9-1.3c0.9-1.1,1.7-1.8,2.4-2.2c0.7-0.4,1.6-0.6,2.6-0.6c2.1,0,3.7,0.8,4.8,2.4c1.1,1.6,1.6,4,1.6,7.2v12.5"/>
	<path class="st0" d="M129.4,43.2h0.4c1.3,0,2-0.1,2.3-0.3c0.2-0.2,0.4-0.8,0.4-1.6c0-1.1-0.2-1.9-0.7-2.6c-0.5-0.7-1-1-1.7-1
		s-1.4,0.4-1.9,1.2s-0.8,1.7-0.8,2.8c0,0.6,0.1,1.1,0.3,1.3c0.2,0.2,0.6,0.3,1.3,0.3h0.4 M138.1,48.9h-9.5c-0.5,0-0.9,0.1-1,0.2
		c-0.2,0.1-0.3,0.3-0.3,0.6c0,1.4,0.5,2.7,1.6,3.9s2.3,1.8,3.6,1.8c1,0,2.1-0.4,3.3-1.2s1.9-1.2,2.1-1.2c0.5,0,0.9,0.3,1.3,0.8
		c0.3,0.6,0.5,1.2,0.5,2.1c0,0.7-0.2,1.5-0.7,2.4c-0.5,0.8-1.1,1.6-1.9,2.4c-1.1,1-2.2,1.7-3.5,2.2c-1.2,0.5-2.5,0.7-3.9,0.7
		c-3.4,0-6.2-1.5-8.4-4.4c-2.2-2.9-3.3-6.6-3.3-11c0-1.6,0.2-3.2,0.5-4.7c0.4-1.5,0.9-3,1.6-4.3c1.1-2.1,2.5-3.8,4.3-5
		c1.7-1.2,3.6-1.8,5.5-1.8c3,0,5.6,1.2,7.5,3.5c2,2.4,3,5.3,3,8.9c0,1.5-0.2,2.6-0.5,3.3C139.6,48.5,139,48.9,138.1,48.9"/>
	<path class="st0" d="M139.7,58.6c0-1.1,0.4-2,1.3-2.8c0.1-0.1,0.2-0.2,0.3-0.3c0.3-0.3,0.4-0.5,0.6-0.7c0.1-0.2,0.2-0.4,0.2-0.6
		c0.1-0.5,0.2-1.7,0.3-3.5s0.1-3.9,0.1-6.4v-0.9c0-0.8,0-1.3-0.1-1.6c-0.1-0.2-0.3-0.5-0.7-0.8c-0.7-0.5-1.1-0.9-1.4-1.4
		c-0.3-0.4-0.4-0.9-0.4-1.4c0-0.6,0.2-1.1,0.6-1.7c0.4-0.5,0.9-1,1.6-1.5c1.3-0.9,2.7-1.5,4.3-2s3-0.8,4.4-0.8
		c0.5,0,0.8,0.1,1.1,0.3c0.2,0.2,0.4,0.6,0.4,1.1c0,0.4,0.1,0.9,0.1,1.5c0.1,1,0.2,1.5,0.5,1.5c0.2,0,0.4-0.3,0.6-0.9
		c0.1-0.4,0.2-0.7,0.3-1c0.4-0.8,0.9-1.5,1.5-1.9s1.4-0.6,2.2-0.6c1.7,0,3.1,0.7,4.1,2c1.1,1.4,1.6,3.1,1.6,5.2c0,2.2-0.5,4-1.4,5.4
		c-1,1.4-2.2,2.1-3.7,2.1c-0.8,0-1.5-0.2-2.1-0.6c-0.7-0.4-1.2-0.9-1.6-1.6c-0.1-0.2-0.3-0.6-0.5-1.2c-0.2-0.6-0.4-0.9-0.6-0.9
		c-0.3,0-0.5,0.4-0.6,1.3c-0.1,0.9-0.2,2.5-0.2,5c0,2.6,0.1,4.3,0.3,5.1s0.6,1.3,1.1,1.7c0.1,0.1,0.2,0.1,0.4,0.2
		c1.2,0.8,1.7,1.7,1.7,2.9c0,1.4-0.6,2.5-1.8,3.1s-3.3,0.9-6.2,0.9c-2.7,0-4.8-0.4-6.1-1.1C140.4,61.2,139.7,60.1,139.7,58.6"/>
	<path class="st0" d="M169.8,30.8c-1.5,0-2.6-0.4-3.4-1.1c-0.8-0.7-1.2-1.8-1.2-3.2c0-1.5,0.7-2.7,2.1-3.8c1.4-1.1,3.2-1.6,5.2-1.6
		c1.5,0,2.7,0.3,3.6,1c0.8,0.7,1.3,1.6,1.3,2.9c0,1.6-0.7,3-2.2,4.1C173.9,30.3,172,30.8,169.8,30.8 M177.8,35.8v17.4
		c0,0.7,0.1,1.3,0.2,1.6c0.1,0.4,0.3,0.8,0.7,1.2c0.1,0.1,0.2,0.2,0.3,0.4c0.8,0.8,1.1,1.7,1.1,2.6c0,1.4-0.6,2.4-1.8,3.1
		c-1.2,0.7-3.1,1-5.5,1c-2.5,0-4.4-0.4-5.7-1.1c-1.3-0.7-2-1.8-2-3.1c0-0.9,0.4-1.8,1.3-2.7l0,0c0.1-0.1,0.2-0.2,0.2-0.2
		c0.4-0.4,0.6-0.8,0.7-1.1c0.1-0.4,0.2-1.2,0.2-2.2c0-1.1,0.1-2.8,0.1-5.2v-1.2c0-1.8-0.1-3-0.2-3.7c-0.2-0.7-0.5-1.2-1-1.6
		c0,0-0.1-0.1-0.2-0.2c-0.8-0.7-1.3-1.5-1.3-2.5c0-0.7,0.2-1.4,0.6-1.9c0.4-0.5,1.2-1,2.2-1.6c1.5-0.8,3.1-1.4,4.8-1.9
		c1.6-0.5,3-0.7,4-0.7c0.6,0,0.9,0.1,1.1,0.3c0.2,0.2,0.3,0.8,0.3,1.6v1.7"/>
	<path class="st0" d="M180.6,47.8c0-1.8,0.2-3.5,0.6-5c0.4-1.5,1-2.9,1.7-4.2c1.3-2.1,2.8-3.7,4.6-4.8s3.8-1.7,6-1.7
		c2.8,0,5.1,0.8,6.8,2.4c1.7,1.6,2.6,3.7,2.6,6.2c0,1.7-0.4,3.1-1.3,4.3c-0.8,1.2-1.9,1.7-3.1,1.7c-0.7,0-1.4-0.2-1.9-0.6
		c-0.6-0.4-1-1-1.5-1.9c-0.1-0.3-0.3-0.8-0.5-1.4c-0.5-1.6-1.2-2.4-2-2.4c-0.7,0-1.2,0.4-1.7,1.1c-0.4,0.7-0.6,1.7-0.6,2.9
		c0,2.1,0.5,3.9,1.6,5.4c1.1,1.6,2.3,2.4,3.7,2.4c0.8,0,1.8-0.3,2.9-0.9c1.1-0.6,1.9-0.9,2.2-0.9c0.6,0,1.1,0.3,1.5,1
		s0.6,1.5,0.6,2.5c0,1.2-0.3,2.4-0.9,3.6c-0.6,1.2-1.5,2.2-2.6,3c-1.1,0.9-2.3,1.5-3.5,2s-2.4,0.7-3.6,0.7c-1.6,0-3-0.4-4.5-1.1
		c-1.4-0.8-2.7-1.8-3.7-3.2c-1.2-1.5-2.1-3.2-2.7-5.1C180.9,52,180.6,50,180.6,47.8"/>
	<path class="st0" d="M215.1,50.9c0-0.6-0.1-1-0.2-1.2c-0.1-0.2-0.4-0.2-0.9-0.2c-0.7,0-1.2,0.3-1.6,0.9c-0.4,0.6-0.6,1.5-0.6,2.7
		c0,1.1,0.1,1.9,0.4,2.5c0.3,0.6,0.7,0.9,1.2,0.9c0.6,0,1-0.3,1.2-0.9C215,54.8,215.1,53.3,215.1,50.9 M215.2,45.2
		c0-0.1,0-0.3,0-0.5c0-1.1,0.1-1.9,0.1-2.3c0-1.9-0.1-3.2-0.4-4c-0.3-0.8-0.8-1.2-1.4-1.2c-0.7,0-1.5,0.8-2.5,2.4
		c-0.2,0.3-0.3,0.5-0.4,0.6c-0.6,1-1.3,1.8-1.8,2.3c-0.6,0.5-1.2,0.7-1.9,0.7s-1.4-0.3-1.9-1s-0.7-1.6-0.7-2.6c0-2.1,1-3.8,3-5.2
		s4.5-2.1,7.5-2.1c3.3,0,5.9,0.9,7.6,2.6c1.7,1.7,2.6,4.2,2.6,7.5c0,0.9,0,2-0.1,3.5c0,1.5-0.1,2.5-0.1,3v0.9c0,2.3,0.1,3.7,0.2,4.3
		c0.2,0.5,0.5,0.9,1,1.1c0.4,0.1,0.7,0.4,1,0.7c0.2,0.3,0.3,0.8,0.3,1.3c0,1.5-0.7,3-2.1,4.4c-1.4,1.4-3,2.1-4.9,2.1
		c-0.6,0-1.2-0.1-1.6-0.3c-0.4-0.2-0.8-0.5-1.1-0.9c-0.2-0.2-0.4-0.6-0.7-1c-0.4-0.7-0.8-1-1-1s-0.4,0.2-0.8,0.5
		c-0.1,0.1-0.2,0.3-0.3,0.3c-0.8,0.8-1.6,1.3-2.3,1.6s-1.5,0.5-2.5,0.5c-2.2,0-4-0.8-5.4-2.4c-1.3-1.6-2-3.7-2-6.4s0.9-4.9,2.6-6.8
		c1.8-1.8,3.9-2.7,6.5-2.7c0.4,0,0.9,0,1.5,0.1C213.9,44.9,214.5,45.1,215.2,45.2"/>
	<path class="st0" d="M229.8,39.6h-1L227,26.8c0-0.3-0.1-0.5-0.1-0.6s0-0.3,0-0.4c0-1,0.2-1.8,0.7-2.4s1-0.9,1.8-0.9
		c0.7,0,1.3,0.3,1.8,0.9s0.7,1.4,0.7,2.4c0,0.1,0,0.3,0,0.4s0,0.3-0.1,0.6L229.8,39.6"/>
	<path class="st0" d="M251.2,53.5c0,2.9-0.8,5.3-2.5,7.1c-1.6,1.8-3.8,2.8-6.4,2.8c-1,0-2-0.2-3-0.5s-1.6-0.5-1.6-0.5
		c-0.2,0-0.5,0.1-1,0.3c-0.4,0.2-0.8,0.3-1,0.3c-0.8,0-1.7-0.9-2.7-2.6c-0.9-1.7-1.4-3.5-1.4-5.4c0-1.1,0.2-2,0.5-2.6
		s0.7-0.8,1.3-0.8c0.8,0,1.7,0.7,2.6,2.1c0.1,0.2,0.2,0.3,0.3,0.4c0.7,0.9,1.3,1.6,1.8,2.1s1,0.7,1.5,0.7c0.3,0,0.6-0.1,0.8-0.4
		c0.2-0.3,0.3-0.5,0.3-0.9c0-1-0.7-1.9-2.1-2.7c-0.5-0.3-0.9-0.5-1.1-0.7c-1.8-1.2-3.1-2.6-4.1-4.3c-0.9-1.7-1.4-3.6-1.4-5.6
		c0-2.7,0.8-5,2.5-7s3.7-2.9,6.1-2.9c0.6,0,1.3,0.1,2.1,0.3s1.4,0.4,1.6,0.4c0.3,0,0.7-0.1,1.2-0.5c0.5-0.3,0.9-0.5,1.1-0.5
		c0.9,0,1.7,0.8,2.7,2.5c0.9,1.6,1.4,3.3,1.4,5c0,1-0.2,1.8-0.7,2.4c-0.4,0.6-1,0.9-1.8,0.9c-0.4,0-0.8-0.1-1.2-0.3s-0.8-0.6-1.1-1
		c-0.2-0.2-0.5-0.6-0.8-1c-0.9-1.3-1.7-1.9-2.4-1.9c-0.3,0-0.6,0.1-0.9,0.4c-0.2,0.3-0.4,0.7-0.4,1.1c0,0.8,0.8,1.7,2.5,2.8
		c0.5,0.3,0.9,0.6,1.2,0.8c2.1,1.4,3.6,2.9,4.5,4.4C250.7,49.6,251.2,51.4,251.2,53.5"/>
	<polyline class="st0" points="168.5,10.5 174.3,19.7 185.9,18.1 177.9,25.8 183.2,35.2 172.5,30.8 164.1,38.2 165.5,27.7 
		155.1,22.9 166.6,20.9 168.5,10.5 	"/>
	<g>
		<path class="st0" d="M41.2,87.1c0-0.7,0.3-1.2,1-1.6c0.7-0.3,1.1-0.6,1.1-0.6c0.3-0.4,0.5-1.6,0.7-3.8c0.2-2.1,0.2-5.1,0.2-8.8
			c0-1.3-0.1-2.2-0.2-2.7c-0.2-0.4-0.5-0.8-0.9-1.1c-0.1,0-0.2-0.1-0.3-0.2c-0.9-0.6-1.4-1.2-1.4-1.8c0-0.8,0.5-1.4,1.4-1.8
			s2.3-0.6,4.1-0.6c1.1,0,2,0.1,2.8,0.2s1.4,0.2,1.6,0.4c0.2,0.1,0.4,0.4,0.7,0.8s0.9,1.3,1.7,2.8c0.5,0.8,1,1.8,1.7,3.1
			c1.1,2.1,1.9,3.1,2.5,3.1s1.3-1,2.3-3.1c0.7-1.5,1.4-2.8,1.9-3.7c0.5-0.9,0.9-1.6,1.2-2c0.3-0.5,0.6-0.8,0.9-0.9
			c0.3-0.2,0.8-0.4,1.3-0.4c0.6-0.1,1.6-0.1,3.1-0.1c2,0,3.3,0.2,4.1,0.5c0.8,0.4,1.2,0.9,1.2,1.8c0,0.6-0.3,1-1,1.4
			c-0.2,0.1-0.4,0.2-0.4,0.3c-0.4,0.3-0.6,1.1-0.8,2.3c-0.2,1.2-0.2,3.1-0.2,5.5c0,2.3,0.1,4.3,0.2,5.8s0.3,2.4,0.5,2.7
			c0,0.1,0.2,0.2,0.5,0.3c0.9,0.5,1.4,1.1,1.4,1.9s-0.5,1.4-1.5,1.8c-1,0.3-2.8,0.5-5.3,0.5s-4.2-0.2-5.2-0.5c-1-0.4-1.5-1-1.5-1.8
			c0-0.6,0.3-1.2,1-1.6c0.3-0.2,0.5-0.3,0.6-0.4c0.2-0.3,0.4-0.8,0.5-1.5s0.1-2,0.1-3.8c0-0.5-0.1-0.9-0.2-1.1
			C62.5,78.2,62.3,78,62,78c-0.4,0-1,0.7-1.6,2.1c-0.2,0.5-0.4,0.9-0.5,1.2c-0.3,0.7-0.7,1.6-1.2,2.7c-1.3,3-2.3,4.5-2.9,4.5
			c-0.4,0-0.8-0.3-1.3-1.1c-0.5-0.7-1.4-2.5-2.7-5.4c-0.3-0.6-0.6-1.3-0.9-2.2c-0.6-1.4-1-2.2-1.5-2.2c-0.3,0-0.5,0.3-0.6,0.8
			s-0.2,1.8-0.2,3.8c0,1.3,0.1,2.1,0.2,2.5c0.1,0.3,0.4,0.6,0.7,0.8c0,0,0.1,0.1,0.2,0.1c0.8,0.4,1.3,0.9,1.3,1.6s-0.4,1.2-1.1,1.5
			c-0.8,0.3-2.1,0.5-3.9,0.5c-1.8,0-3.1-0.2-3.9-0.5C41.6,88.3,41.2,87.8,41.2,87.1"/>
		<path class="st0" d="M85,78.3h5.6c-0.7-1.6-1.3-2.8-1.8-3.6c-0.5-0.8-0.9-1.2-1.1-1.2c-0.3,0-0.6,0.3-0.9,1
			C86.3,75.2,85.7,76.5,85,78.3 M74.1,86.9c0-0.4,0.1-0.8,0.3-1c0.2-0.2,0.7-0.5,1.5-0.8c0.7-0.2,1.1-0.5,1.3-0.8
			c0.2-0.3,0.6-0.9,1-1.8c0.4-0.8,1.1-2.4,2.1-4.6l0.5-1.1c2.6-5.7,4-9.1,4.2-10.3c0,0,0-0.1,0.1-0.2c0.3-1.7,1.3-2.5,3.1-2.5
			c1,0,1.8,0.1,2.5,0.3c0.7,0.2,1.3,0.6,1.8,1.1c0.7,0.7,1.5,1.8,2.3,3.2c0.8,1.4,2.1,4,3.8,7.6c0.5,1,1,2.3,1.7,4
			c1.1,2.6,1.9,4.1,2.4,4.6c0.2,0.2,0.5,0.3,0.9,0.4c0.2,0,0.3,0.1,0.4,0.1c0.3,0.1,0.5,0.3,0.7,0.6c0.2,0.3,0.3,0.5,0.3,0.8
			c0,0.9-0.6,1.6-1.8,2c-1.2,0.4-3,0.6-5.6,0.6c-2.9,0-4.9-0.2-6-0.5s-1.7-0.9-1.7-1.7c0-0.3,0.1-0.6,0.2-0.8
			c0.1-0.2,0.4-0.4,0.7-0.6c0.1,0,0.2-0.1,0.4-0.2c0.6-0.3,0.9-0.6,0.9-0.9c0-0.5-0.4-0.9-1.3-1.1C90,83.1,88.6,83,86.7,83
			c-1.5,0-2.5,0.1-3.1,0.3c-0.6,0.2-0.9,0.6-0.9,1.1c0,0.3,0.1,0.5,0.2,0.6s0.4,0.3,0.9,0.4c0.5,0.2,0.9,0.4,1.1,0.6
			s0.2,0.5,0.2,0.9c0,0.8-0.5,1.4-1.4,1.7c-0.9,0.4-2.3,0.5-4.3,0.5c-1.8,0-3.1-0.2-4-0.5C74.5,88.2,74.1,87.6,74.1,86.9"/>
		<path class="st0" d="M120.5,64.4c0.2,0,0.5-0.1,1-0.2c0.5-0.2,0.9-0.2,1.3-0.2s0.8,0.1,1.1,0.2c0.4,0.2,0.7,0.4,0.9,0.7
			c0.7,0.8,1.2,1.6,1.6,2.5s0.6,1.9,0.6,2.7c0,1-0.2,1.8-0.7,2.4s-1.2,0.8-2,0.8c-0.5,0-1.1-0.2-1.6-0.5s-0.9-0.8-1.3-1.4
			c-0.1-0.2-0.3-0.4-0.5-0.8c-0.5-0.9-1-1.4-1.4-1.4c-0.3,0-0.5,0.1-0.7,0.3c-0.1,0.2-0.2,0.6-0.2,1v1.1c0,0.8,0,2.2-0.1,4.3
			c-0.1,2.1-0.1,3.7-0.1,4.9c0,1.2,0.1,2,0.3,2.5c0.2,0.5,0.5,0.9,1,1.1c0.1,0.1,0.3,0.1,0.6,0.2c0.8,0.4,1.3,0.9,1.3,1.6
			c0,1-0.6,1.6-1.9,2.1c-1.3,0.4-3.3,0.6-6.1,0.6c-2.3,0-4.1-0.2-5.3-0.7c-1.3-0.5-1.9-1.1-1.9-2c0-0.7,0.5-1.3,1.5-1.7
			c0.4-0.2,0.7-0.3,0.9-0.4c0.4-0.3,0.7-1.3,0.9-2.9c0.2-1.7,0.3-4,0.3-6.8V73c0-1.6-0.1-2.6-0.2-3s-0.4-0.7-0.8-0.7
			s-0.9,0.4-1.5,1.2c-0.2,0.2-0.3,0.4-0.4,0.6c-0.7,0.8-1.2,1.4-1.7,1.7c-0.5,0.3-0.9,0.4-1.5,0.4c-0.7,0-1.2-0.2-1.7-0.7
			c-0.4-0.5-0.7-1.1-0.7-1.9c0-0.6,0.2-1.4,0.5-2.2c0.3-0.8,0.8-1.7,1.4-2.6c0.5-0.7,0.9-1.2,1.4-1.5s0.9-0.5,1.3-0.5
			c0.2,0,0.5,0.1,1,0.2c0.4,0.1,0.8,0.2,1,0.2h12.4"/>
		<path class="st0" d="M146.2,64.4c0.2,0,0.5-0.1,1-0.2c0.5-0.2,0.9-0.2,1.3-0.2c0.4,0,0.8,0.1,1.1,0.2c0.4,0.2,0.7,0.4,0.9,0.7
			c0.7,0.8,1.2,1.6,1.6,2.5c0.4,0.9,0.6,1.9,0.6,2.7c0,1-0.2,1.8-0.7,2.4s-1.2,0.8-2,0.8c-0.5,0-1.1-0.2-1.6-0.5s-0.9-0.8-1.3-1.4
			c-0.1-0.2-0.3-0.4-0.5-0.8c-0.5-0.9-1-1.4-1.4-1.4c-0.3,0-0.5,0.1-0.7,0.3c-0.1,0.2-0.2,0.6-0.2,1v1.1c0,0.8,0,2.2-0.1,4.3
			c-0.1,2.1-0.1,3.7-0.1,4.9c0,1.2,0.1,2,0.3,2.5s0.5,0.9,1,1.1c0.1,0.1,0.3,0.1,0.5,0.2c0.8,0.4,1.3,0.9,1.3,1.6
			c0,1-0.6,1.6-1.9,2.1c-1.3,0.4-3.3,0.6-6.1,0.6c-2.3,0-4.1-0.2-5.3-0.7c-1.3-0.5-1.9-1.1-1.9-2c0-0.7,0.5-1.3,1.5-1.7
			c0.4-0.2,0.7-0.3,0.9-0.4c0.4-0.3,0.7-1.3,0.9-2.9c0.2-1.7,0.3-4,0.3-6.8V73c0-1.6-0.1-2.6-0.2-3c-0.1-0.4-0.4-0.7-0.8-0.7
			c-0.4,0-0.9,0.4-1.5,1.2c-0.2,0.2-0.3,0.4-0.4,0.6c-0.6,0.8-1.2,1.4-1.6,1.7c-0.5,0.3-0.9,0.4-1.5,0.4c-0.7,0-1.2-0.2-1.7-0.7
			c-0.4-0.5-0.7-1.1-0.7-1.9c0-0.6,0.2-1.4,0.5-2.2c0.3-0.8,0.8-1.7,1.4-2.6c0.5-0.7,0.9-1.2,1.4-1.5s0.9-0.5,1.3-0.5
			c0.2,0,0.6,0.1,1,0.2s0.8,0.2,1,0.2h12.4"/>
		<path class="st0" d="M164.6,74.5c0.3,0.1,0.5,0.1,0.6,0.1s0.3,0,0.4,0c0.9,0,1.6-0.3,1.9-0.8c0.4-0.5,0.6-1.5,0.6-2.7
			c0-1-0.2-1.7-0.6-2.2c-0.4-0.5-1-0.7-1.8-0.7c-0.5,0-0.8,0.2-1,0.5s-0.2,1.1-0.2,2.2v1.5c0,0.5,0,0.9,0,1.2
			C164.6,73.9,164.6,74.2,164.6,74.5 M164.8,78.7V82c0,1,0,1.7,0.1,2.1s0.2,0.6,0.4,0.7c0.1,0.1,0.3,0.2,0.5,0.3
			c0.9,0.5,1.3,1.1,1.3,1.8c0,0.8-0.5,1.4-1.5,1.7c-1,0.3-2.7,0.5-5.2,0.5s-4.3-0.2-5.4-0.5c-1.1-0.4-1.6-1-1.6-1.8
			c0-0.6,0.5-1.2,1.4-1.7c0.1-0.1,0.3-0.1,0.4-0.2c0.3-0.1,0.5-1,0.7-2.5s0.3-3.6,0.3-6.1V75c0-2.7-0.1-4.5-0.2-5.3
			c-0.1-0.8-0.3-1.3-0.5-1.5c-0.1-0.1-0.4-0.2-0.7-0.4c-0.9-0.4-1.3-1-1.3-1.6s0.4-1.1,1.2-1.5c0.8-0.3,1.9-0.5,3.4-0.5
			c0.2,0,0.7,0,1.5,0s1.5,0,2,0c0.9,0,2.2,0,3.7-0.1c1.5,0,2.6-0.1,3.2-0.1c3,0,5.3,0.5,6.9,1.6c1.6,1.1,2.4,2.7,2.4,4.7
			c0,1-0.2,1.8-0.6,2.6c-0.4,0.8-1,1.4-1.8,1.9c-0.2,0.1-0.4,0.3-0.8,0.4c-0.5,0.3-0.8,0.5-0.8,0.7c0,0.3,0.3,0.5,1,0.7
			s1.2,0.4,1.5,0.6c0.7,0.5,1.2,1.1,1.6,1.8c0.4,0.8,0.7,1.8,0.9,3c0,0.1,0.1,0.3,0.1,0.6c0.2,1.2,0.5,1.9,0.8,2
			c0.1,0,0.2,0.1,0.3,0.1c1.1,0.4,1.7,0.9,1.7,1.6c0,0.8-0.5,1.5-1.6,2s-2.5,0.8-4.2,0.8c-1.1,0-2-0.1-2.7-0.3
			c-0.8-0.2-1.4-0.5-1.9-0.9c-0.9-0.7-1.7-2.2-2.3-4.4c0-0.1,0-0.1,0-0.2s-0.1-0.3-0.2-0.6c-0.8-2.9-1.8-4.3-3-4.3
			c-0.2,0-0.3,0-0.5,0C165.1,78.7,164.9,78.7,164.8,78.7"/>
		<path class="st0" d="M196.5,88.9h-12.6c-1.1,0-1.8-0.1-2.2-0.4c-0.4-0.2-0.6-0.7-0.6-1.3c0-0.6,0.4-1.2,1.2-1.6
			c0.4-0.2,0.7-0.4,0.8-0.5c0.4-0.4,0.7-1.3,0.9-2.8s0.3-3.8,0.3-7.1c0-2.3-0.1-3.9-0.2-4.9c-0.1-1-0.3-1.6-0.6-1.9
			c-0.1-0.1-0.5-0.3-1.1-0.6c-0.7-0.3-1-0.8-1-1.5c0-0.6,0.3-1.1,0.8-1.4s1.3-0.5,2.3-0.5c0.2,0,1.3,0,3.4,0.1
			c2.1,0,4.1,0.1,5.9,0.1c3,0,5.6-0.1,7.9-0.4c0.2,0,0.3,0,0.4,0c0.9,0,1.7,0.5,2.3,1.4s0.9,2.1,0.9,3.6c0,0.9-0.2,1.6-0.6,2.1
			c-0.4,0.5-0.9,0.8-1.5,0.8c-0.7,0-1.3-0.4-1.9-1.3c-0.2-0.3-0.3-0.5-0.5-0.6c-0.5-0.6-1.1-0.9-1.8-1.2c-0.7-0.2-1.5-0.4-2.6-0.4
			c-1.3,0-2.2,0-2.6,0.1c-0.4,0.1-0.7,0.2-0.8,0.4c-0.1,0.2-0.2,0.5-0.3,1.2c-0.1,0.6-0.1,1.4-0.1,2.5c0,1,0.1,1.5,0.3,1.7
			s0.7,0.3,1.4,0.3c0.5,0,0.9-0.1,1.1-0.2c0.2-0.2,0.4-0.5,0.5-1c0-0.1,0.1-0.2,0.1-0.4c0.3-1.4,0.8-2.1,1.6-2.1s1.5,0.4,1.9,1.2
			c0.4,0.8,0.6,2.1,0.6,3.7c0,2-0.2,3.6-0.7,4.6s-1.1,1.6-2,1.6c-0.8,0-1.3-0.6-1.5-1.8c0-0.1,0-0.1,0-0.1c-0.1-0.8-0.3-1.3-0.5-1.5
			s-0.6-0.3-1.2-0.3c-0.7,0-1.1,0.1-1.3,0.4c-0.2,0.2-0.3,0.9-0.3,1.9c0,1.4,0,2.3,0.1,2.8c0.1,0.4,0.2,0.7,0.4,0.9
			c0.2,0.2,0.5,0.3,0.9,0.4s1.2,0.1,2.3,0.1c1.3,0,2.4-0.2,3.3-0.5c0.9-0.3,1.6-0.8,2.1-1.5c0.2-0.2,0.5-0.6,0.8-1.1
			c0.6-0.9,1.2-1.4,1.9-1.4s1.2,0.2,1.5,0.6s0.5,1,0.5,1.7c0,0.8-0.1,1.6-0.4,2.5c-0.2,0.8-0.6,1.7-1,2.5c-0.4,0.7-0.8,1.2-1.1,1.5
			s-0.7,0.4-1.1,0.4c0,0-0.2,0-0.5-0.1C200.4,89.1,198.5,88.9,196.5,88.9"/>
		<path class="st0" d="M217.3,89.5c-2,0-3.9-0.3-5.7-0.8s-3-1.1-3.6-1.7c-0.5-0.6-0.9-1.4-1.2-2.4s-0.4-2.2-0.4-3.4
			c0-0.7,0.1-1.3,0.4-1.6c0.3-0.3,0.7-0.5,1.3-0.5c0.7,0,1.5,0.5,2.2,1.6c0.2,0.4,0.4,0.6,0.6,0.8c0.8,1,1.7,1.8,2.6,2.3
			c0.9,0.5,1.9,0.8,2.9,0.8c0.8,0,1.4-0.2,1.9-0.4c0.5-0.3,0.7-0.7,0.7-1.1c0-0.6-0.9-1.2-2.7-1.8c-0.8-0.3-1.5-0.5-1.9-0.7
			c-2.5-0.9-4.3-2.1-5.6-3.4s-1.8-3-1.8-4.8c0-2.4,1-4.3,2.9-5.9c1.9-1.5,4.4-2.3,7.4-2.3c1.1,0,2.2,0.1,3.4,0.4
			c1.1,0.2,1.7,0.4,1.7,0.4c0.3,0,0.7-0.1,1.2-0.2s0.8-0.2,1-0.2c0.4,0,0.8,0.1,1.2,0.3c0.4,0.2,0.7,0.5,1.1,1
			c0.6,0.7,1.1,1.4,1.4,2.2c0.3,0.8,0.5,1.5,0.5,2.1c0,0.8-0.2,1.4-0.7,1.9s-1.1,0.7-1.9,0.7c-0.7,0-1.6-0.5-2.7-1.5
			c-0.3-0.3-0.6-0.6-0.8-0.7c-0.5-0.4-1.1-0.8-1.7-1.1c-0.7-0.2-1.3-0.4-2-0.4s-1.2,0.1-1.6,0.4c-0.4,0.2-0.6,0.6-0.6,1.1
			c0,0.9,1.3,1.7,4,2.4c0.4,0.1,0.7,0.2,0.9,0.2c2.7,0.8,4.6,1.8,5.8,2.9c1.1,1.2,1.7,2.7,1.7,4.7c0,2.7-1.1,4.8-3.3,6.5
			C223.7,88.7,220.9,89.5,217.3,89.5"/>
		<path class="st0" d="M240.5,89.5c-2,0-3.9-0.3-5.7-0.8s-3-1.1-3.6-1.7c-0.5-0.6-0.9-1.4-1.2-2.4s-0.4-2.2-0.4-3.4
			c0-0.7,0.1-1.3,0.4-1.6c0.3-0.3,0.7-0.5,1.3-0.5c0.7,0,1.5,0.5,2.2,1.6c0.2,0.4,0.4,0.6,0.6,0.8c0.8,1,1.7,1.8,2.6,2.3
			c0.9,0.5,1.9,0.8,2.9,0.8c0.8,0,1.4-0.2,1.9-0.4c0.5-0.3,0.7-0.7,0.7-1.1c0-0.6-0.9-1.2-2.7-1.8c-0.8-0.3-1.5-0.5-1.9-0.7
			c-2.5-0.9-4.3-2.1-5.6-3.4c-1.2-1.4-1.8-3-1.8-4.8c0-2.4,1-4.3,2.9-5.9c1.9-1.5,4.4-2.3,7.4-2.3c1.1,0,2.2,0.1,3.4,0.4
			c1.1,0.2,1.7,0.4,1.7,0.4c0.3,0,0.7-0.1,1.2-0.2s0.8-0.2,1-0.2c0.4,0,0.8,0.1,1.2,0.3c0.4,0.2,0.7,0.5,1.1,1
			c0.6,0.7,1.1,1.4,1.4,2.2c0.3,0.8,0.5,1.5,0.5,2.1c0,0.8-0.2,1.4-0.7,1.9s-1.1,0.7-1.9,0.7c-0.7,0-1.6-0.5-2.7-1.5
			c-0.4-0.3-0.6-0.6-0.8-0.7c-0.5-0.4-1.1-0.8-1.7-1.1c-0.7-0.2-1.3-0.4-2-0.4s-1.2,0.1-1.6,0.4c-0.4,0.2-0.6,0.6-0.6,1.1
			c0,0.9,1.3,1.7,4,2.4c0.4,0.1,0.7,0.2,0.9,0.2c2.7,0.8,4.6,1.8,5.7,2.9c1.1,1.2,1.7,2.7,1.7,4.7c0,2.7-1.1,4.8-3.3,6.5
			C246.9,88.7,244,89.5,240.5,89.5"/>
		<g>
			<path class="st0" d="M257,65.5c1.5,0,2.7,1.2,2.7,2.6c0,1.5-1.2,2.6-2.7,2.6s-2.7-1.2-2.7-2.6C254.3,66.6,255.5,65.5,257,65.5
				L257,65.5z M256.9,66c-1.2,0-2,0.9-2,2.1s0.9,2.1,2,2.1c1.2,0,2-0.9,2-2.1C259,66.9,258.1,66,256.9,66L256.9,66z M256.5,69.4
				h-0.6v-2.6c0.2,0,0.6-0.1,1-0.1c0.5,0,0.7,0.1,0.9,0.2c0.1,0.1,0.3,0.3,0.3,0.6c0,0.3-0.2,0.5-0.5,0.6l0,0
				c0.3,0.1,0.4,0.3,0.5,0.6c0.1,0.4,0.1,0.6,0.2,0.6h-0.7c-0.1-0.1-0.1-0.3-0.2-0.6c0-0.3-0.2-0.4-0.5-0.4h-0.3L256.5,69.4
				L256.5,69.4z M256.6,68h0.3c0.3,0,0.6-0.1,0.6-0.4c0-0.2-0.2-0.4-0.6-0.4c-0.2,0-0.3,0-0.3,0V68z"/>
		</g>
	</g>
</g>
</svg>
