<svg id="Gym" xmlns="http://www.w3.org/2000/svg" viewBox="0 0 50 27"><defs><style>.cls-1{fill:#697175;}</style></defs><title>benefits-icon-gym</title><path class="cls-1" d="M42.71,35.12H21.29V28.88H42.71v6.23Zm-19.43-2H40.71V30.88H23.29v2.23Z" transform="translate(-7 -18.5)"/><path class="cls-1" d="M47.07,45.5H43.5a2.79,2.79,0,0,1-2.79-2.79V21.29A2.79,2.79,0,0,1,43.5,18.5h3.57a2.79,2.79,0,0,1,2.79,2.79V42.71A2.79,2.79,0,0,1,47.07,45.5Zm-3.57-25a0.79,0.79,0,0,0-.79.79V42.71a0.79,0.79,0,0,0,.79.79h3.57a0.79,0.79,0,0,0,.79-0.79V21.29a0.79,0.79,0,0,0-.79-0.79H43.5Z" transform="translate(-7 -18.5)"/><path class="cls-1" d="M54.49,41.93H50.37a2.51,2.51,0,0,1-2.51-2.51V24.58a2.51,2.51,0,0,1,2.51-2.51h4.13A2.51,2.51,0,0,1,57,24.58V39.42A2.51,2.51,0,0,1,54.49,41.93ZM50.37,24.07a0.51,0.51,0,0,0-.51.51V39.42a0.51,0.51,0,0,0,.51.51h4.13A0.51,0.51,0,0,0,55,39.42V24.58a0.51,0.51,0,0,0-.51-0.51H50.37Z" transform="translate(-7 -18.5)"/><path class="cls-1" d="M20.5,45.5H16.93a2.79,2.79,0,0,1-2.79-2.79V21.29a2.79,2.79,0,0,1,2.79-2.79H20.5a2.79,2.79,0,0,1,2.79,2.79V42.71A2.79,2.79,0,0,1,20.5,45.5Zm-3.57-25a0.79,0.79,0,0,0-.79.79V42.71a0.79,0.79,0,0,0,.79.79H20.5a0.79,0.79,0,0,0,.79-0.79V21.29a0.79,0.79,0,0,0-.79-0.79H16.93Z" transform="translate(-7 -18.5)"/><path class="cls-1" d="M13.63,41.93H9.51A2.51,2.51,0,0,1,7,39.42V24.58a2.51,2.51,0,0,1,2.51-2.51h4.12a2.51,2.51,0,0,1,2.51,2.51V39.42A2.51,2.51,0,0,1,13.63,41.93ZM9.51,24.07a0.51,0.51,0,0,0-.51.51V39.42a0.51,0.51,0,0,0,.51.51h4.12a0.51,0.51,0,0,0,.51-0.51V24.58a0.51,0.51,0,0,0-.51-0.51H9.51Z" transform="translate(-7 -18.5)"/><path class="cls-1" d="M36.67,35.12H27.33V28.88h9.34v6.23Zm-7.34-2h5.34V30.88H29.33v2.23Z" transform="translate(-7 -18.5)"/><rect class="cls-1" x="24" y="11.38" width="2" height="4.23"/></svg>