<svg id="_401K" data-name="401K" xmlns="http://www.w3.org/2000/svg" viewBox="0 0 50 30"><defs><style>.cls-1{fill:#697175;}</style></defs><title>benefits-icon-401k</title><path class="cls-1" d="M57,47H7V17H57V47ZM9,45H55V19H9V45Z" transform="translate(-7 -17)"/><path class="cls-1" d="M32,39.25c-4.82,0-8.75-3.25-8.75-7.25s3.93-7.25,8.75-7.25S40.75,28,40.75,32,36.83,39.25,32,39.25Zm0-12.5c-3.72,0-6.75,2.35-6.75,5.25s3,5.25,6.75,5.25,6.75-2.36,6.75-5.25S35.72,26.75,32,26.75Z" transform="translate(-7 -17)"/><path class="cls-1" d="M10,25H7V17h8v3A5,5,0,0,1,10,25ZM9,23h1a3,3,0,0,0,3-3V19H9v4Z" transform="translate(-7 -17)"/><path class="cls-1" d="M15,47H7V39h3a5,5,0,0,1,5,5v3ZM9,45h4V44a3,3,0,0,0-3-3H9v4Z" transform="translate(-7 -17)"/><path class="cls-1" d="M57,25H54a5,5,0,0,1-5-5V17h8v8Zm-6-6v1a3,3,0,0,0,3,3h1V19H51Z" transform="translate(-7 -17)"/><path class="cls-1" d="M57,47H49V44a5,5,0,0,1,5-5h3v8Zm-6-2h4V41H54a3,3,0,0,0-3,3v1Z" transform="translate(-7 -17)"/></svg>