<svg id="Vaction" xmlns="http://www.w3.org/2000/svg" viewBox="0 0 50 39"><defs><style>.cls-1{fill:#697175;}</style></defs><title>benefits-icon-vacation</title><path class="cls-1" d="M55,51.5H9a2,2,0,0,1-2-2v-28a2,2,0,0,1,2-2H55a2,2,0,0,1,2,2v28A2,2,0,0,1,55,51.5ZM9,21.5v28H55v-28H9Z" transform="translate(-7 -12.5)"/><path class="cls-1" d="M40.5,21.5h-17v-6a3,3,0,0,1,3-3h11a3,3,0,0,1,3,3v6Zm-15-2h13v-4a1,1,0,0,0-1-1h-11a1,1,0,0,0-1,1v4Z" transform="translate(-7 -12.5)"/><path class="cls-1" d="M37,21.5H27V17.74a2,2,0,0,1,2-2H35a2,2,0,0,1,2,2V21.5ZM29,19.5H35V17.74H29V19.5Z" transform="translate(-7 -12.5)"/><path class="cls-1" d="M50,51.5H14v-32H50v32Zm-34-2H48v-28H16v28Z" transform="translate(-7 -12.5)"/><path class="cls-1" d="M46,51.5H18v-32H46v32Zm-26-2H44v-28H20v28Z" transform="translate(-7 -12.5)"/><path class="cls-1" d="M32.79,39.62l-6.92-6.9L33.59,25H40.5v6.91ZM28.7,32.72l4.09,4.08,5.71-5.71V27H34.41Z" transform="translate(-7 -12.5)"/><path class="cls-1" d="M36.09,30.91a1.5,1.5,0,1,1,1.5-1.5A1.5,1.5,0,0,1,36.09,30.91Zm0-2a0.5,0.5,0,1,0,.5.5A0.5,0.5,0,0,0,36.09,28.91Z" transform="translate(-7 -12.5)"/><rect class="cls-1" x="38" y="11.5" width="4" height="2"/><rect class="cls-1" x="38" y="32.5" width="4" height="2"/><rect class="cls-1" x="8" y="32.5" width="4" height="2"/><rect class="cls-1" x="8" y="11.5" width="4" height="2"/></svg>