<svg id="Dental" xmlns="http://www.w3.org/2000/svg" viewBox="0 0 47.11 50"><defs><style>.cls-1{fill:#697175;}</style></defs><title>benefits-icon-dental</title><path class="cls-1" d="M38,57H37.55l-0.33-.31-1.35-1.43a7.09,7.09,0,0,1-1.94-4.89V41.83a1.88,1.88,0,0,0-.46-1.23,1.92,1.92,0,0,0-2.9,0,1.87,1.87,0,0,0-.48,1.26v8.55a7.09,7.09,0,0,1-1.94,4.89L26.5,57H26a10.48,10.48,0,0,1-10.18-8l-7.1-28.8a12,12,0,0,1-.29-1.78v-0.3c0-.1,0-0.21,0-0.3,0-.26,0-0.5,0-0.75l0.06-.5c0-.16,0-0.24,0-0.32a4.65,4.65,0,0,1,.08-0.5,10.7,10.7,0,0,1,3.26-5.61A11.82,11.82,0,0,1,17.48,7.3l0.16,0a12.31,12.31,0,0,1,10.9,2.87,5.15,5.15,0,0,0,6.94,0A12.25,12.25,0,0,1,43.79,7a12.61,12.61,0,0,1,8.29,3.15,10.71,10.71,0,0,1,3.26,5.59c0,0.24.08,0.43,0.1,0.61h0s0,0.07,0,.15l0.07,0.58c0,0.25,0,.49,0,0.75,0,0.1,0,.2,0,0.3v0.21a12.11,12.11,0,0,1-.29,1.87L55,21.1,48.15,49A10.47,10.47,0,0,1,38,57ZM17.81,9.28a9.82,9.82,0,0,0-4.53,2.35,8.7,8.7,0,0,0-2.66,4.55c0,0.11-.05.25-0.06,0.38l-1,0,1,0.09a2.34,2.34,0,0,1,0,.24l0,0.3c0,0.2,0,.4,0,0.61V18c0,0.1,0,.21,0,0.3a10.43,10.43,0,0,0,.24,1.4l0.21,0.89,6.88,27.9A8.48,8.48,0,0,0,25.65,55l1-1.09a5.1,5.1,0,0,0,1.4-3.51V41.83a3.85,3.85,0,0,1,1-2.58A3.89,3.89,0,0,1,32,37.91a3.79,3.79,0,0,1,3,1.42,3.84,3.84,0,0,1,.93,2.5v8.54a5.1,5.1,0,0,0,1.4,3.51l1,1.11a8.48,8.48,0,0,0,7.84-6.46l7.1-28.79a10.22,10.22,0,0,0,.24-1.49s0-.11,0-0.21V17.82c0-.21,0-0.41,0-0.62l0-.35s0-.1,0-0.18l0-.12c0-.12,0-0.25-0.06-0.37a8.71,8.71,0,0,0-2.66-4.55A10.61,10.61,0,0,0,43.79,9a10.25,10.25,0,0,0-7,2.63,7.16,7.16,0,0,1-9.66,0,10.3,10.3,0,0,0-9.11-2.39A1.3,1.3,0,0,1,17.81,9.28Z" transform="translate(-8.44 -7)"/><rect class="cls-1" x="31.83" y="8.83" width="2" height="14.06" transform="translate(-10.05 20.86) rotate(-45)"/><path class="cls-1" d="M50.16,20.53l-2,0c0.13-5.6-5.86-6-6.12-6l0.1-2C45,12.62,50.3,14.47,50.16,20.53Z" transform="translate(-8.44 -7)"/></svg>