<svg id="Heath" xmlns="http://www.w3.org/2000/svg" viewBox="0 0 50 42.81"><defs><style>.cls-1{fill:#697175;}</style></defs><title>benefits-icon-health</title><path class="cls-1" d="M32,53.61L10.7,32.3A12.59,12.59,0,1,1,28.51,14.5L32,18l3.49-3.5a12.64,12.64,0,0,1,17.83,0,12.62,12.62,0,0,1,0,17.81ZM19.6,12.8a10.59,10.59,0,0,0-7.49,18.08L32,50.79l19.9-19.9a10.62,10.62,0,0,0,0-15,10.63,10.63,0,0,0-15,0L32,20.83l-4.92-4.92A10.52,10.52,0,0,0,19.6,12.8Z" transform="translate(-7 -10.8)"/><path class="cls-1" d="M35,39H29V35H25V29h4V25h6v4h4v6H35v4Zm-4-2h2V33h4V31H33V27H31v4H27v2h4v4Z" transform="translate(-7 -10.8)"/></svg>