<svg id="Time" xmlns="http://www.w3.org/2000/svg" viewBox="0 0 50 50"><defs><style>.cls-1{fill:#697175;}</style></defs><title>benefits-icon-time</title><path class="cls-1" d="M32,57A25,25,0,1,1,57,32,25,25,0,0,1,32,57ZM32,9A23,23,0,1,0,55,32,23,23,0,0,0,32,9Z" transform="translate(-7 -7)"/><path class="cls-1" d="M32,51A19,19,0,1,1,51,32,19,19,0,0,1,32,51Zm0-36A17,17,0,1,0,49,32,17,17,0,0,0,32,15Z" transform="translate(-7 -7)"/><polygon class="cls-1" points="32.04 33.46 24 25.41 24 15 26 15 26 24.59 33.46 32.04 32.04 33.46"/><rect class="cls-1" x="24" y="7" width="2" height="4"/><rect class="cls-1" x="19.69" y="18.69" width="2" height="4" transform="translate(-15.57 13.69) rotate(-45)"/><rect class="cls-1" x="7" y="24" width="4" height="2"/><rect class="cls-1" x="18.69" y="42.31" width="4" height="2" transform="translate(-31.57 20.31) rotate(-45)"/><rect class="cls-1" x="24" y="39" width="2" height="4"/><rect class="cls-1" x="42.31" y="41.31" width="2" height="4" transform="translate(-24.94 36.31) rotate(-45)"/><rect class="cls-1" x="39" y="24" width="4" height="2"/><rect class="cls-1" x="41.31" y="19.69" width="4" height="2" transform="translate(-8.94 29.69) rotate(-45)"/></svg>