<?xml version="1.0" encoding="utf-8"?>
<!-- Generator: Adobe Illustrator 19.2.1, SVG Export Plug-In . SVG Version: 6.00 Build 0)  -->
<svg version="1.1" id="Layer_1" xmlns="http://www.w3.org/2000/svg" xmlns:xlink="http://www.w3.org/1999/xlink" x="0px" y="0px"
	 viewBox="0 0 300 100" style="enable-background:new 0 0 300 100;" xml:space="preserve">
<style type="text/css">
	.st0{fill:#6A787C;}
</style>
<circle class="st0" cx="-130.5" cy="-143.6" r="44"/>
<g>
	<g>
		<path class="st0" d="M148.8-137.7c-8.3,0-9.3,8.6-9.3,15.1c0,6.4,1,15.1,9.3,15.1c8.2,0,9.3-8.7,9.3-15.1
			C158.1-129.1,157-137.7,148.8-137.7z"/>
		<path class="st0" d="M12.1-154.4v62.2h276.1v-62.2H12.1z M39.9-101.5c-5.5,0-9-1.1-10.8-1.6v-6.6c0.8,0.3,6,2.3,10.2,2.3
			c3.6,0,8.2-1,8.2-5.1c0-3-3.7-4.7-6.4-6.5l-3.9-2.4c-3.6-2.3-8-5-8-10.9c0-7.1,5.9-11.1,14.2-11.1c4,0,7.1,1.1,9.1,1.4v6.8
			c-1.1-0.5-4.8-2.4-9.2-2.4c-3.3,0-6.6,1.8-6.6,4.3c0,2.8,3.2,4.3,5.8,5.9l3.2,1.9c4.3,2.6,9.3,5.3,9.3,11.9
			C55-105.2,49-101.5,39.9-101.5z M79.7-102.5h-7.1v-40h7.1V-102.5z M119.4-135.3c-6.8,0-12.5,3.5-12.5,15.7v17h-7.6v-40h7.6v8.1
			h0.2c1.1-3.2,4.5-9,12.4-9L119.4-135.3L119.4-135.3z M148.8-101.7c-12.1,0-17.7-8.3-17.7-20.9c0-12.8,5.6-21,17.7-21
			c12,0,17.7,8.2,17.7,21C166.5-110,160.9-101.7,148.8-101.7z M216.5-102.5h-7.6v-21.9c0-7.4,0-11.5-5.5-11.5
			c-6.2,0-10.6,8.4-10.6,16.4v17h-7.6v-40h7.6v8.6h0.2c1.3-3.4,4.5-9.5,12.7-9.5c9.3,0,10.8,8.2,10.8,13.2L216.5-102.5L216.5-102.5z
			 M264.6-102.5H257v-5h-0.2c-1,2.2-4.2,5.9-10.3,5.9c-7.5,0-11.4-4.5-11.4-10.8c0-10.6,11.7-13.1,21.9-13.1v-7
			c-0.7-3.9-3.3-5.1-6.1-5.1c-4.5,0-6.4,2.9-6.4,6.1h-8c0-6.4,3.8-12,15-12c13.1,0,13.1,9.8,13.1,13.5V-102.5z"/>
		<path class="st0" d="M243.6-112.6c0,3.1,2.1,5.1,4.4,5.1c5.2,0,9.1-6,9.1-10.7v-2.2h-1.5C249.6-120.4,243.6-117.8,243.6-112.6z"/>
	</g>
	<polygon class="st0" points="18.5,-73.9 17.2,-73.9 17.2,-81.9 19.6,-81.9 19.6,-80.7 20.4,-80.7 20.4,-83.2 19.6,-83.2 
		19.6,-82.8 12.8,-82.8 12.8,-83.2 12.1,-83.2 12.1,-80.7 12.8,-80.7 12.8,-81.9 15.3,-81.9 15.3,-73.9 13.9,-73.9 13.9,-73.3 
		18.5,-73.3 	"/>
	<path class="st0" d="M36.4-73.9h-0.8v-4.3c0-1.2-0.7-1.8-1.9-1.8c-0.9,0-1.4,0.3-2.3,1.2v-5.1h-0.6l-2.1,0.6v0.5h1v8.9h-0.8v0.6
		h3.4v-0.6h-0.9V-78c0.9-0.9,1.2-1,1.7-1c0.6,0,0.8,0.3,0.8,1.1v4H33v0.6h3.4V-73.9L36.4-73.9z"/>
	<path class="st0" d="M50.7-74.7c-1.1,0.7-1.4,0.8-1.9,0.8c-1.3,0-2.1-1.1-2.1-2.9H51v-0.6c0-1.6-1.1-2.6-2.8-2.6
		c-2,0-3.3,1.4-3.3,3.4s1.3,3.4,3.2,3.4c1,0,1.5-0.2,2.9-1L50.7-74.7L50.7-74.7z M46.7-77.5c0.1-1.1,0.7-1.8,1.5-1.8
		c0.6,0,1,0.6,1,1.5v0.3H46.7L46.7-77.5z"/>
	<path class="st0" d="M75.6-73.3c1.4,0,2.4-0.4,3.3-1.2c1-0.9,1.5-2.2,1.5-3.5c0-2.7-2.1-4.7-4.8-4.7h-4.5v0.6h1.1v8.3h-1.1v0.6h4.5
		V-73.3z M74.1-82h1.2c1.7,0,3.1,1.8,3.1,3.9c0,2.2-1.4,4-3.2,4H74L74.1-82L74.1-82z"/>
	<path class="st0" d="M95.5-74.7c-1.1,0.7-1.4,0.8-1.9,0.8c-1.3,0-2.1-1.1-2.1-2.9h4.3v-0.6c0-1.6-1.1-2.6-2.8-2.6
		c-2,0-3.3,1.4-3.3,3.4s1.3,3.4,3.2,3.4c1,0,1.5-0.2,2.9-1L95.5-74.7L95.5-74.7z M91.5-77.5c0.1-1.1,0.7-1.8,1.5-1.8
		c0.6,0,1,0.6,1,1.5v0.3H91.5L91.5-77.5z"/>
	<path class="st0" d="M112.6-73.9h-0.8v-4.3c0-1.2-0.6-1.8-1.9-1.8c-0.9,0-1.4,0.3-2.3,1.2V-80H107l-2.1,0.6v0.5h1v5h-0.8v0.6h3.4
		v-0.6h-0.8V-78c0.9-0.9,1.2-1,1.7-1c0.6,0,0.8,0.3,0.8,1.1v4h-0.8v0.6h3.4v-0.6C112.8-73.9,112.6-73.9,112.6-73.9z"/>
	<path class="st0" d="M126.3-74.4c-0.4,0.3-0.6,0.3-0.9,0.3c-0.2,0-0.4-0.2-0.4-0.4v-0.4V-79h1.5v-0.7H125v-2h-1.6v2l-0.9,0.2v0.5
		h0.9v4.4c0,0.9,0.6,1.4,1.5,1.4c0.6,0,1-0.2,1.7-0.8L126.3-74.4L126.3-74.4z"/>
	<path class="st0" d="M142.5-74h-0.9v-4.4c0-1-0.8-1.6-2.4-1.6c-1.5,0-2.5,0.6-2.5,1.4c0,0.2,0,0.2,0.1,0.4l1.6-0.4v-0.7
		c0.3-0.2,0.5-0.2,0.7-0.2c0.5,0,0.7,0.3,0.7,1v1.5l-2.1,0.5c-0.9,0.2-1.4,0.8-1.4,1.7c0,1,0.7,1.7,1.8,1.7c0.8,0,1.2-0.2,1.7-0.8
		c0.1,0.5,0.3,0.8,0.9,0.8c0.2,0,0.4,0,0.7-0.1l1-0.3L142.5-74L142.5-74z M139.9-74.6c-0.5,0.4-0.8,0.6-1.1,0.6
		c-0.4,0-0.7-0.4-0.7-0.9v-0.8l1.8-0.4V-74.6L139.9-74.6z"/>
	<polygon class="st0" points="155.2,-73.9 154.4,-73.9 154.4,-83.9 153.8,-83.9 151.7,-83.3 151.7,-82.8 152.7,-82.8 152.7,-73.9 
		151.8,-73.9 151.8,-73.3 155.2,-73.3 	"/>
	<path class="st0" d="M183.4-75.6h-0.8v1.1c-0.7,0.4-1.2,0.6-1.9,0.6c-2,0-3.5-1.8-3.5-4.1c0-2.4,1.4-4,3.4-4c0.8,0,1.2,0.2,2,0.7
		v0.9h0.8V-83h-0.8v0.6c-0.8-0.4-1.5-0.5-2.4-0.5c-2.9,0-5,2.1-5,4.9c0,2.9,2.1,4.9,5.2,4.9c1.1,0,1.9-0.2,3.1-0.6v-1.9H183.4z"/>
	<path class="st0" d="M197.6-73.1c1.9,0,3.3-1.4,3.3-3.4s-1.4-3.4-3.3-3.4c-1.9,0-3.3,1.4-3.3,3.4C194.3-74.6,195.7-73.1,197.6-73.1
		L197.6-73.1z M197.6-79.3c0.9,0,1.5,1.1,1.5,2.7s-0.6,2.7-1.5,2.7s-1.5-1.1-1.5-2.7C196.1-78.1,196.7-79.3,197.6-79.3L197.6-79.3z"
		/>
	<path class="st0" d="M222.7-73.9h-0.8v-4.3c0-1.1-0.8-1.8-1.9-1.8c-1,0-1.6,0.4-2.4,1.4c-0.2-1-0.8-1.4-1.9-1.4
		c-0.8,0-1.4,0.3-2.3,1.2v-1.1h-0.6l-2.1,0.6v0.5h1v5h-0.8v0.6h3.4v-0.6h-0.8v-4.1c0.7-0.8,1.2-1.1,1.8-1.1s0.8,0.3,0.8,1.1v4h-0.8
		v0.6h3.2v-0.6h-0.8v-4c0.8-0.9,1.2-1.2,1.8-1.2c0.5,0,0.8,0.3,0.8,1.1v4h-0.8v0.6h3.4v-0.5H222.7z"/>
	<path class="st0" d="M235.7-70.4h-0.9v-2.8c0.4,0.1,0.5,0.2,0.9,0.2c2.1,0,3.5-1.5,3.5-3.7c0-1.9-1-3.1-2.6-3.1
		c-0.8,0-1.3,0.2-1.8,0.6v-0.6h-0.6l-2.1,0.5v0.4h1v8.5h-0.8v0.6h3.5L235.7-70.4L235.7-70.4z M235.9-79.1c0.9,0,1.5,1,1.5,2.4
		c0,1.7-0.8,2.9-1.8,2.9c-0.6,0-0.7-0.2-0.7-1.2v-3.6C235.3-78.9,235.6-79.1,235.9-79.1L235.9-79.1z"/>
	<path class="st0" d="M255-74h-0.9v-4.4c0-1-0.8-1.6-2.4-1.6c-1.5,0-2.5,0.6-2.5,1.4c0,0.2,0,0.2,0.1,0.4l1.6-0.4v-0.7
		c0.3-0.2,0.5-0.2,0.7-0.2c0.5,0,0.7,0.3,0.7,1v1.5l-2.1,0.5c-0.9,0.2-1.4,0.8-1.4,1.7c0,1,0.7,1.7,1.8,1.7c0.8,0,1.2-0.2,1.7-0.8
		c0.1,0.5,0.3,0.8,0.9,0.8c0.2,0,0.4,0,0.7-0.1l1-0.3L255-74L255-74z M252.4-74.6c-0.5,0.4-0.8,0.6-1.1,0.6c-0.4,0-0.7-0.4-0.7-0.9
		v-0.8l1.8-0.4V-74.6L252.4-74.6z"/>
	<path class="st0" d="M272.4-73.9h-0.8v-4.3c0-1.2-0.6-1.8-1.9-1.8c-0.9,0-1.4,0.3-2.3,1.2V-80h-0.6l-2.1,0.6v0.5h1v5h-0.8v0.6h3.4
		v-0.6h-0.8V-78c0.9-0.9,1.2-1,1.7-1c0.6,0,0.8,0.3,0.8,1.1v4h-1v0.6h3.4L272.4-73.9L272.4-73.9z"/>
	<path class="st0" d="M288.2-79.8H286v0.6h0.9l-1.3,3.5l-1.4-3.5h0.7v-0.6h-3v0.6h0.5l2.3,5.7c-0.3,0.8-0.5,1.1-0.9,1.6
		s-0.7,0.8-1.5,1.3l0.9,1c0.3-0.3,0.5-0.6,0.6-0.8c0.5-0.6,1-1.6,1.3-2.6l2.4-6.2h0.6v-0.6H288.2z"/>
</g>
<image style="overflow:visible;" width="300" height="150" xlink:href="ci-logo.png"  transform="matrix(0.6633 0 0 0.6633 -285.54 -69.3117)">
</image>
<circle class="st0" cx="-115.4" cy="-170.4" r="7"/>
<rect x="-144.4" y="-159.6" class="st0" width="36" height="41.2"/>
<circle class="st0" cx="-144.4" cy="-139" r="20.6"/>
<circle class="st0" cx="-144.4" cy="-139" r="10.1"/>
<rect x="-144.4" y="-149.1" class="st0" width="23.5" height="20.2"/>
<rect x="-128.4" y="-128.8" class="st0" width="7.5" height="10.5"/>
<g>
	<path class="st0" d="M150,6c-24.3,0-44,19.7-44,44s19.7,44,44,44s44-19.7,44-44S174.3,6,150,6z M172.2,75.2h-12.5V44.5h-23.5
		c-5.6,0-10.1,4.5-10.1,10.1c0,5.6,4.5,10.1,10.1,10.1h16v10.5h-16c-11.4,0-20.6-9.2-20.6-20.6c0-11.4,9.2-20.6,20.6-20.6h36V75.2z
		 M165.2,30.2c-3.9,0-7-3.1-7-7c0-3.9,3.1-7,7-7c3.9,0,7,3.1,7,7C172.2,27,169,30.2,165.2,30.2z"/>
</g>
</svg>
