<?xml version="1.0" encoding="utf-8"?>
<!-- Generator: Adobe Illustrator 19.2.1, SVG Export Plug-In . SVG Version: 6.00 Build 0)  -->
<svg version="1.1" id="Layer_1" xmlns="http://www.w3.org/2000/svg" xmlns:xlink="http://www.w3.org/1999/xlink" x="0px" y="0px"
	 viewBox="0 0 300 100" style="enable-background:new 0 0 300 100;" xml:space="preserve">
<style type="text/css">
	.st0{fill:#6A787C;}
	.st1{opacity:0.1;fill:#6A787C;enable-background:new    ;}
	.st2{opacity:5.000000e-02;fill:#6A787C;enable-background:new    ;}
</style>
<g>
	<path class="st0" d="M113.4,28.3c2.1,2.1,4.9,3.3,7.7,3.2l0,0c0,0,9.1,0,13.8,4.7C138.7,40,139,46.9,139,49
		c-0.1,2.9,0.9,5.9,3.2,8.1c0.1,0.1,0.6,0.6,0.7,0.7c2.1,2.1,4.9,3.2,7.8,3.2c0,0,9.1,0,13.7,4.7c3.8,3.8,4.1,10.7,4.1,12.7
		c-0.1,2.9,0.9,5.9,3.2,8.1c4.3,4.3,11.2,4.3,15.4,0c4.3-4.3,4.3-11.2,0-15.4c-2.2-2.2-5.2-3.3-8.1-3.2c-2,0-9.1-0.3-12.9-4.1
		c-4.3-4.3-4.6-12.2-4.7-13.6c0.1-2.9-1-5.8-3.2-7.9c-0.1-0.1-0.3-0.2-0.4-0.3c-0.1-0.1-0.2-0.3-0.3-0.4c-2.2-2.2-5.2-3.3-8.1-3.2
		c-2,0-9.1-0.3-12.9-4.1c-4.3-4.3-4.6-12.2-4.7-13.6c0.1-2.9-1-5.7-3.2-7.9c-4.3-4.3-11.2-4.3-15.4,0
		C109.1,17.2,109.1,24.1,113.4,28.3z"/>
	<path class="st0" d="M186.9,86.5c-4.2,4.2-11,4.2-15.3,0c-4.2-4.2-4.2-11,0-15.3c4.2-4.2,11-4.2,15.3,0
		C191.2,75.5,191.2,82.3,186.9,86.5"/>
	<path class="st0" d="M187,28.3c-4.3,4.3-11.2,4.3-15.4,0c-4.3-4.3-4.3-11.2,0-15.4c4.3-4.2,11.2-4.2,15.4,0
		C191.3,17.1,191.3,24,187,28.3"/>
	<path class="st0" d="M150.3,31.8L150.3,31.8c0,0,9.1,0,13.8,4.7c3.8,3.8,4.1,10.7,4.1,12.7c-0.1,2.9,0.9,5.9,3.2,8.1
		c4.3,4.3,11.2,4.3,15.4,0c4.3-4.3,4.3-11.2,0-15.4c-2.2-2.2-5.2-3.3-8.1-3.2c-2,0-9.1-0.3-12.9-4.1c-4.3-4.3-4.6-12.2-4.7-13.6
		c0.1-2.9-1-5.8-3.2-7.9c-4.3-4.3-11.2-4.3-15.4,0c-4.3,4.3-4.3,11.2,0,15.4C144.7,30.7,147.4,31.8,150.3,31.8z"/>
	<path class="st0" d="M149.5,68.1c-2,0-9.1-0.3-12.9-4.1c-4.3-4.3-4.6-12.2-4.7-13.6c0.1-2.9-1-5.8-3.2-7.9
		c-4.3-4.3-11.2-4.3-15.4,0c-4.3,4.3-4.3,11.2,0,15.4c2.1,2.1,4.9,3.3,7.7,3.2l0,0c0,0,9.1,0,13.8,4.7c3.8,3.8,4.1,10.7,4.1,12.7
		c-0.1,2.9,0.9,5.9,3.2,8.1c4.3,4.3,11.2,4.3,15.4,0c4.3-4.3,4.3-11.2,0-15.4C155.4,69,152.5,68,149.5,68.1z"/>
	<path class="st1" d="M131.2,19.7c-1,1.7-2.6-3-6.6-5.3c-3.9-2.4-8.7-1.5-7.7-3.3c1-1.7,5.5-1.7,9.4,0.6
		C130.3,14.1,132.2,18,131.2,19.7z"/>
	<path class="st0" d="M112.9,71.1c4.3-4.4,11.4-4.4,15.7,0s4.3,11.5,0,16c-4.3,4.4-11.4,4.4-15.7,0
		C108.6,82.6,108.6,75.5,112.9,71.1"/>
	<path class="st0" d="M128.6,57.5c-4.3,4.3-11.2,4.3-15.4,0c-4.3-4.3-4.3-11.2,0-15.4c4.3-4.2,11.2-4.2,15.4,0
		C132.9,46.3,132.9,53.2,128.6,57.5"/>
	<path class="st0" d="M157.7,86.5c-4.2,4.2-11,4.2-15.3,0c-4.2-4.2-4.2-11,0-15.3c4.2-4.2,11-4.2,15.3,0
		C161.9,75.5,161.9,82.3,157.7,86.5"/>
	<path class="st0" d="M128.6,86.6c-4.3,4.3-11.2,4.3-15.4,0c-4.3-4.3-4.3-11.2,0-15.4s11.2-4.2,15.4,0
		C132.9,75.4,132.9,82.4,128.6,86.6"/>
	<path class="st0" d="M128.5,28.2c-4.2,4.2-11,4.2-15.3,0c-4.2-4.2-4.2-11,0-15.3c4.2-4.2,11-4.2,15.3,0
		C132.7,17.2,132.7,24,128.5,28.2"/>
	<path class="st1" d="M150.8,38.8c2.3-0.5-4.8,2-7.4,3.9c-1.7,1.3-2.4,9.7-3.1,11.5c-0.1,0.2-0.4-0.7-0.7-1.7
		c-0.2-0.8-0.3-1.5-0.3-1.6s-0.1-0.5-0.1-1c0-0.9-0.1-2-0.1-2.3c-0.1-2.6-1.5-7,1.1-9C142.8,36.7,147.5,39.5,150.8,38.8z"/>
	<path class="st1" d="M149.8,61c-2.4,0.5,4.5-2.3,7.2-4.3s4.6-8.3,4.6-5c0,2.6,1.3,7-1.4,9c-2.3,1.8-6.4,0.3-9.3,0.3
		C150.4,61.1,150.2,60.9,149.8,61z"/>
	<path class="st0" d="M158.1,57.8c-4.4,4.4-11.5,4.4-16,0c-4.4-4.4-4.4-11.5,0-16c4.4-4.4,11.5-4.4,16,0
		C162.5,46.2,162.5,53.3,158.1,57.8"/>
	<path class="st1" d="M139.6,49.8c1.2-1.7,1.1,3.6,4.6,6.8c3.4,3.2,9.8,1.4,8.6,3.1c-1.2,1.7-6.4,0.9-9.5-1.3
		C140.2,56.2,138.4,51.5,139.6,49.8z"/>
	<path class="st1" d="M169.3,78.8c1.2-1.7,1.1,3.6,4.6,6.8c3.4,3.2,9.8,1.4,8.6,3.1c-1.2,1.7-6.4,0.9-9.5-1.3
		C169.9,85.2,168.1,80.6,169.3,78.8z"/>
	<path class="st1" d="M110.8,20.4c1.2-1.7,1.1,3.6,4.6,6.8c3.4,3.2,9.8,1.4,8.6,3.1s-6.4,0.9-9.5-1.3
		C111.3,26.8,109.5,22.1,110.8,20.4z"/>
	<path class="st1" d="M169.1,20.6c1.2-1.7,1.1,3.6,4.6,6.8c3.4,3.2,9.8,1.4,8.6,3.1s-6.4,0.9-9.5-1.3
		C169.7,27,167.8,22.4,169.1,20.6z"/>
	<path class="st2" d="M180.7,39.4c2.3-0.5-4.8,2-7.4,3.9c-1.7,1.3-2.4,9.7-3.1,11.5c-0.1,0.2-0.4-0.7-0.7-1.7
		c-0.2-0.8-0.3-1.5-0.3-1.6s-0.1-0.5-0.1-1c0-0.9-0.1-2-0.1-2.3c-0.1-2.6-1.5-7,1.1-9S177.4,40.1,180.7,39.4z"/>
	<path class="st2" d="M149.3,31.2c-2.1,0.1,4.9-2.2,7.3-3.7c1.6-1,2.5-9,3.2-10.5c0.1-0.2,0.4,0.8,0.6,1.7c0.2,0.8,0.3,1.5,0.3,1.6
		s0.1,0.5,0,1c0,0.8,0.3,1.9,0.3,2.2c0,2.5,1.3,6.6-1.1,8.1C157.4,33.1,152.4,31.1,149.3,31.2z"/>
	<path class="st0" d="M186.9,57.4c-4.2,4.2-11,4.2-15.3,0c-4.2-4.2-4.2-11,0-15.3c4.2-4.2,11-4.2,15.3,0
		C191.2,46.4,191.2,53.2,186.9,57.4"/>
	<path class="st2" d="M168.9,49.7c1.2-1.7,1.1,3.6,4.6,6.8c3.4,3.2,9.8,1.4,8.6,3.1c-1.2,1.7-6.4,0.9-9.5-1.3
		C169.5,56.1,167.7,51.4,168.9,49.7z"/>
	<path class="st0" d="M157.8,28.3c-4.3,4.3-11.2,4.3-15.4,0c-4.3-4.3-4.3-11.2,0-15.4c4.3-4.2,11.2-4.2,15.4,0
		C162.1,17.1,162.1,24,157.8,28.3"/>
	<path class="st2" d="M139.6,20.4c1.2-1.7,1.1,3.6,4.6,6.8c3.4,3.2,9.8,1.4,8.6,3.1s-6.4,0.9-9.5-1.3
		C140.2,26.8,138.4,22.1,139.6,20.4z"/>
</g>
</svg>
