<?xml version="1.0" encoding="utf-8"?>
<!-- Generator: Adobe Illustrator 19.2.1, SVG Export Plug-In . SVG Version: 6.00 Build 0)  -->
<svg version="1.1" id="Layer_1" xmlns="http://www.w3.org/2000/svg" xmlns:xlink="http://www.w3.org/1999/xlink" x="0px" y="0px"
	 viewBox="0 0 300 100" style="enable-background:new 0 0 300 100;" xml:space="preserve">
<style type="text/css">
	.st0{fill:#FFFFFF;}
	.st1{fill:#6A787C;}
</style>
<g>
	<g>
		<path class="st0" d="M-200.2,330.5c-8.3,0-9.3,8.6-9.3,15.1c0,6.4,1,15.1,9.3,15.1c8.2,0,9.3-8.7,9.3-15.1
			C-190.9,339.1-192,330.5-200.2,330.5z"/>
		<path class="st0" d="M-336.9,313.8V376h276.1v-62.2H-336.9z M-309.1,366.7c-5.5,0-9-1.1-10.8-1.6v-6.6c0.8,0.3,5.9,2.4,10.1,2.4
			c3.6,0,8.2-1,8.2-5.1c0-3-3.7-4.7-6.4-6.5l-3.9-2.4c-3.6-2.3-8-5-8-10.9c0-7.2,5.9-11.2,14.2-11.2c4,0,7.1,1.1,9.1,1.4v6.8
			c-1.1-0.5-4.8-2.4-9.2-2.4c-3.3,0-6.6,1.8-6.6,4.3c0,2.8,3.2,4.3,5.8,5.9l3.2,1.9c4.2,2.6,9.3,5.2,9.3,11.9
			C-294,363-300,366.7-309.1,366.7z M-269.3,365.6h-7.1v-40h7.1V365.6z M-229.6,332.9c-6.8,0-12.5,3.5-12.5,15.7v17h-7.6v-40h7.6
			v8.1h0.2c1.1-3.2,4.5-9,12.4-9L-229.6,332.9L-229.6,332.9L-229.6,332.9z M-200.2,366.5c-12.1,0-17.7-8.3-17.7-20.9
			c0-12.8,5.6-21,17.7-21c12,0,17.7,8.2,17.7,21C-182.5,358.2-188.1,366.5-200.2,366.5z M-132.5,365.6h-7.6v-21.9
			c0-7.4,0-11.5-5.5-11.5c-6.2,0-10.6,8.4-10.6,16.4v17h-7.6v-40h7.6v8.6h0.2c1.3-3.4,4.5-9.5,12.7-9.5c9.3,0,10.8,8.2,10.8,13.2
			L-132.5,365.6L-132.5,365.6z M-84.4,365.7H-92v-5h-0.2c-1,2.2-4.2,5.9-10.3,5.9c-7.5,0-11.4-4.5-11.4-10.8
			c0-10.6,11.7-13.1,21.9-13.1v-7c-0.7-3.9-3.3-5.1-6.1-5.1c-4.5,0-6.4,2.9-6.4,6.1h-8c0-6.4,3.8-12,15-12
			c13.1,0,13.1,9.8,13.1,13.5V365.7z"/>
		<path class="st0" d="M-105.4,355.6c0,3.1,2.1,5.1,4.4,5.1c5.2,0,9.1-6,9.1-10.7v-2.3h-1.5C-99.4,347.7-105.4,350.4-105.4,355.6z"
			/>
	</g>
	<polygon class="st0" points="-330.5,394.3 -331.8,394.3 -331.8,386.3 -329.4,386.3 -329.4,387.5 -328.6,387.5 -328.6,385 
		-329.4,385 -329.4,385.4 -336.2,385.4 -336.2,385 -336.9,385 -336.9,387.5 -336.2,387.5 -336.2,386.3 -333.7,386.3 -333.7,394.3 
		-335.1,394.3 -335.1,394.9 -330.5,394.9 	"/>
	<path class="st0" d="M-312.6,394.3h-0.8V390c0-1.2-0.7-1.8-1.9-1.8c-0.9,0-1.4,0.3-2.3,1.2v-5.1h-0.6l-2.1,0.6v0.5h1v8.9h-0.8v0.6
		h3.4v-0.6h-0.9v-4.1c0.9-0.9,1.2-1,1.7-1c0.6,0,0.8,0.3,0.8,1.1v4h-0.9v0.6h3.4L-312.6,394.3L-312.6,394.3z"/>
	<path class="st0" d="M-298.3,393.5c-1.1,0.7-1.4,0.8-1.9,0.8c-1.3,0-2.1-1.1-2.1-2.9h4.3v-0.5c0-1.6-1.1-2.6-2.8-2.6
		c-2,0-3.3,1.4-3.3,3.4s1.3,3.4,3.2,3.4c1,0,1.5-0.2,2.9-1L-298.3,393.5L-298.3,393.5z M-302.3,390.6c0.1-1.1,0.7-1.8,1.5-1.8
		c0.6,0,1,0.6,1,1.5v0.3H-302.3L-302.3,390.6z"/>
	<path class="st0" d="M-273.4,394.9c1.4,0,2.4-0.4,3.3-1.2c1-0.9,1.5-2.2,1.5-3.5c0-2.7-2.1-4.7-4.8-4.7h-4.5v0.6h1.1v8.3h-1.1v0.6
		L-273.4,394.9L-273.4,394.9z M-274.9,386.2h1.2c1.7,0,3.1,1.8,3.1,3.9c0,2.2-1.4,4-3.2,4h-1.2v-7.9H-274.9z"/>
	<path class="st0" d="M-253.5,393.5c-1.1,0.7-1.4,0.8-1.9,0.8c-1.3,0-2.1-1.1-2.1-2.9h4.3v-0.5c0-1.6-1.1-2.6-2.8-2.6
		c-2,0-3.3,1.4-3.3,3.4s1.3,3.4,3.2,3.4c1,0,1.5-0.2,2.9-1L-253.5,393.5L-253.5,393.5z M-257.5,390.6c0.1-1.1,0.7-1.8,1.5-1.8
		c0.6,0,1,0.6,1,1.5v0.3H-257.5L-257.5,390.6z"/>
	<path class="st0" d="M-236.4,394.3h-0.8V390c0-1.2-0.6-1.8-1.9-1.8c-0.9,0-1.4,0.3-2.3,1.2v-1.2h-0.6l-2.1,0.6v0.5h1v5h-0.8v0.6
		h3.4v-0.6h-0.8v-4.1c0.9-0.9,1.2-1,1.7-1c0.6,0,0.8,0.3,0.8,1.1v4h-0.8v0.6h3.4v-0.6L-236.4,394.3L-236.4,394.3z"/>
	<path class="st0" d="M-222.7,393.8c-0.4,0.3-0.6,0.3-0.9,0.3c-0.2,0-0.4-0.2-0.4-0.4v-0.4v-4.1h1.5v-0.7h-1.5v-2h-1.6v2l-0.9,0.2
		v0.5h0.9v4.4c0,0.9,0.6,1.4,1.5,1.4c0.6,0,1-0.2,1.7-0.8L-222.7,393.8L-222.7,393.8z"/>
	<path class="st0" d="M-206.5,394.1h-0.9v-4.3c0-1-0.8-1.6-2.4-1.6c-1.5,0-2.5,0.6-2.5,1.4c0,0.2,0,0.2,0.1,0.4l1.6-0.4v-0.7
		c0.3-0.2,0.5-0.2,0.7-0.2c0.5,0,0.7,0.3,0.7,1v1.5l-2.1,0.5c-0.9,0.2-1.4,0.8-1.4,1.7c0,1,0.7,1.7,1.8,1.7c0.8,0,1.2-0.2,1.7-0.8
		c0.1,0.5,0.3,0.8,0.9,0.8c0.2,0,0.4,0,0.7-0.1l1-0.3L-206.5,394.1L-206.5,394.1z M-209.1,393.6c-0.5,0.4-0.8,0.6-1.1,0.6
		c-0.4,0-0.7-0.4-0.7-0.9v-0.8l1.8-0.4V393.6L-209.1,393.6z"/>
	<polygon class="st0" points="-193.8,394.3 -194.6,394.3 -194.6,384.3 -195.2,384.3 -197.3,384.9 -197.3,385.3 -196.3,385.3 
		-196.3,394.3 -197.2,394.3 -197.2,394.9 -193.8,394.9 	"/>
	<path class="st0" d="M-165.6,392.6h-0.8v1.1c-0.7,0.4-1.2,0.6-1.9,0.6c-2,0-3.5-1.8-3.5-4.1c0-2.4,1.4-4,3.4-4c0.8,0,1.2,0.2,2,0.7
		v0.9h0.8v-2.6h-0.8v0.6c-0.8-0.4-1.5-0.5-2.4-0.5c-2.9,0-5,2.1-5,4.9c0,2.9,2.1,4.9,5.2,4.9c1.1,0,1.9-0.2,3.1-0.6v-1.9H-165.6z"/>
	<path class="st0" d="M-151.4,395.1c1.9,0,3.3-1.4,3.3-3.4s-1.4-3.4-3.3-3.4c-1.9,0-3.3,1.4-3.3,3.4
		C-154.7,393.6-153.3,395.1-151.4,395.1L-151.4,395.1z M-151.4,388.9c0.9,0,1.5,1.1,1.5,2.7s-0.6,2.7-1.5,2.7s-1.5-1.1-1.5-2.7
		S-152.3,388.9-151.4,388.9L-151.4,388.9z"/>
	<path class="st0" d="M-126.3,394.3h-0.8V390c0-1.1-0.8-1.8-1.9-1.8c-1,0-1.6,0.4-2.4,1.4c-0.2-1-0.8-1.4-1.9-1.4
		c-0.8,0-1.4,0.3-2.3,1.2v-1.1h-0.6l-2.1,0.6v0.5h1v5h-0.8v0.6h3.4v-0.6h-0.8v-4.1c0.7-0.8,1.2-1.1,1.8-1.1s0.8,0.3,0.8,1.1v4h-0.8
		v0.6h3.2v-0.6h-0.8v-4c0.8-0.9,1.2-1.2,1.8-1.2c0.5,0,0.8,0.3,0.8,1.1v4h-0.8v0.6h3.4v-0.5L-126.3,394.3L-126.3,394.3z"/>
	<path class="st0" d="M-113.3,397.8h-0.9V395c0.4,0.1,0.5,0.2,0.9,0.2c2.1,0,3.5-1.5,3.5-3.7c0-1.9-1-3.1-2.6-3.1
		c-0.8,0-1.3,0.2-1.8,0.6v-0.6h-0.6l-2.1,0.5v0.4h1v8.6h-0.8v0.6h3.5L-113.3,397.8L-113.3,397.8z M-113.1,389.1c0.9,0,1.5,1,1.5,2.4
		c0,1.7-0.8,2.9-1.8,2.9c-0.6,0-0.7-0.2-0.7-1.2v-3.6C-113.7,389.2-113.4,389.1-113.1,389.1L-113.1,389.1z"/>
	<path class="st0" d="M-94,394.1h-0.9v-4.3c0-1-0.8-1.6-2.4-1.6c-1.5,0-2.5,0.6-2.5,1.4c0,0.2,0,0.2,0.1,0.4l1.6-0.4v-0.7
		c0.3-0.2,0.5-0.2,0.7-0.2c0.5,0,0.7,0.3,0.7,1v1.5l-2.1,0.5c-0.9,0.2-1.4,0.8-1.4,1.7c0,1,0.7,1.7,1.8,1.7c0.8,0,1.2-0.2,1.7-0.8
		c0.1,0.5,0.3,0.8,0.9,0.8c0.2,0,0.4,0,0.7-0.1l1-0.3L-94,394.1L-94,394.1z M-96.6,393.6c-0.5,0.4-0.8,0.6-1.1,0.6
		c-0.4,0-0.7-0.4-0.7-0.9v-0.8l1.8-0.4L-96.6,393.6L-96.6,393.6z"/>
	<path class="st0" d="M-76.6,394.3h-0.8V390c0-1.2-0.6-1.8-1.9-1.8c-0.9,0-1.4,0.3-2.3,1.2v-1.2h-0.6l-2.1,0.6v0.5h1v5h-0.8v0.6h3.4
		v-0.6h-0.8v-4.1c0.9-0.9,1.2-1,1.7-1c0.6,0,0.8,0.3,0.8,1.1v4h-1v0.6h3.4L-76.6,394.3L-76.6,394.3z"/>
	<path class="st0" d="M-60.8,388.4H-63v0.6h0.9l-1.3,3.5l-1.4-3.5h0.7v-0.6h-3v0.6h0.5l2.3,5.7c-0.3,0.8-0.5,1.1-0.9,1.6
		s-0.7,0.8-1.5,1.3l0.9,1c0.3-0.3,0.5-0.6,0.6-0.8c0.5-0.6,1-1.6,1.3-2.6l2.4-6.2h0.6L-60.8,388.4L-60.8,388.4z"/>
</g>
<g>
	<path class="st0" d="M77.3,353l-10.5-8.5c0,0,0,0-0.1-0.1l0,0c0,0-0.1-0.1-0.2-0.2c0,0,0,0-0.1-0.1c0,0-0.1-0.1-0.2-0.1
		c0,0-0.1,0-0.1-0.1c0,0-0.1,0-0.1-0.1c-0.1-0.1-0.3-0.2-0.4-0.3l0,0l0,0c-0.2-0.1-0.3-0.2-0.5-0.3c0,0-0.1,0-0.1-0.1
		c0,0-0.1,0-0.1-0.1c-0.2-0.1-0.3-0.2-0.5-0.3c0,0-0.1,0-0.1-0.1c-0.1-0.1-0.3-0.1-0.4-0.2s-0.3-0.1-0.4-0.2c0,0,0,0-0.1,0
		c-0.3-0.1-0.6-0.2-0.9-0.3h-0.1l-12-3.7c0.1,0,0.3,0.1,0.4,0.1c0,0,0,0,0.1,0c-1.2-0.4-2.7-0.8-4.6-0.9c-0.2,0-0.5,0-0.7,0
		c-2.9,0.1-5.7,1.9-7.8,3.8l-0.8-0.6l8.1-10.2l-11.3-8.5l-12-3.7l-7,8.2l-6.3-1.9l-7.4,8.9l4.4,3.5l-11.1,14.2
		c-0.1,0.1-6,9.4,0.1,15.8c4.4,4.6,7.7,6.2,9.6,6.7H4l6.7,2.1l-2.4,3.1L20.8,389l12,3.7l18-23.1l9.4,2.9l6.6-8.6l-7.3-5.3l11.2,3.5
		L77.3,353z M20.7,388l-11.2-9.1l0,0l19.4-25.2l-10.8-8.6l0,0l-0.3,0.3c0,0-0.3,0.4-0.8,1l-0.1,0.1c-0.1,0.1-0.2,0.2-0.3,0.4
		c0,0.1-0.1,0.1-0.1,0.2c-0.3,0.4-0.6,0.8-1,1.3c-0.2,0.2-0.4,0.5-0.6,0.7l-0.1,0.1c-0.1,0.2-0.2,0.3-0.4,0.5c-0.5,0.6-1,1.3-1.6,2
		c-0.1,0.1-0.2,0.2-0.2,0.3c0,0,0,0-0.1,0.1s-0.2,0.3-0.3,0.4c-0.3,0.4-0.6,0.7-0.8,1.1c-0.2,0.2-0.4,0.5-0.5,0.7l0,0
		c-0.1,0.1-0.2,0.2-0.3,0.3c-0.3,0.3-0.5,0.7-0.8,1c-0.1,0.2-0.2,0.3-0.4,0.5c-0.7,0.9-1.3,1.6-1.6,2.1c-1.8,2.4-0.6,4.2-0.1,4.8
		c0.1,0.1,0.2,0.2,0.2,0.2l4.1,2.1l-3,3.6l-3.6,4.4c-0.1,0-0.1,0-0.2,0s-0.3-0.1-0.5-0.1H4.6l0,0H4.5H4.4H4.3l0,0l0,0H4.2
		c-0.1,0-0.1,0-0.2-0.1c0,0-0.1,0-0.2-0.1c-0.2-0.1-0.4-0.1-0.6-0.2l0,0H3.1c-0.1-0.1-0.2-0.1-0.4-0.2s-0.5-0.2-0.8-0.4
		c-0.2-0.1-0.3-0.2-0.5-0.3c-0.1-0.1-0.2-0.1-0.3-0.2c-0.1-0.1-0.3-0.2-0.4-0.3c0,0,0,0-0.1,0l-0.1-0.1c-0.1,0-0.1-0.1-0.2-0.1
		c-0.1-0.1-0.3-0.2-0.4-0.3s-0.3-0.2-0.4-0.3s-0.2-0.2-0.4-0.3l0,0c-0.2-0.2-0.5-0.4-0.7-0.6c-0.1-0.1-0.2-0.2-0.3-0.2
		c-0.4-0.3-0.8-0.7-1.1-1c-0.2-0.2-0.3-0.3-0.5-0.5c-0.1-0.1-0.3-0.3-0.4-0.4l0,0c-0.3-0.3-0.6-0.6-0.9-1c-0.1-0.1-0.1-0.1-0.1-0.2
		c-0.2-0.2-0.4-0.4-0.5-0.6c0-0.1-0.1-0.1-0.1-0.1l0,0l0,0l0,0c0,0,0-0.1-0.1-0.1c0,0,0-0.1-0.1-0.1c0-0.1-0.1-0.1-0.1-0.2
		c-0.1-0.2-0.3-0.4-0.4-0.7v-0.1c-0.1-0.3-0.3-0.5-0.4-0.8c0-0.1,0-0.1-0.1-0.2v-0.1c-0.1-0.3-0.2-0.5-0.2-0.8v-0.1c0,0,0,0,0-0.1
		c-0.1-0.3-0.1-0.6-0.1-0.9v-0.1v-0.1c0-0.4,0-0.7,0-1.1v-0.1l0,0l0,0c0-0.9,0.1-1.8,0.4-2.7c0.4-1.6,0.9-2.9,1.4-3.8
		c0-0.1,0.1-0.2,0.1-0.3s0.1-0.1,0.1-0.2l0,0c0.1-0.1,0.1-0.3,0.2-0.4c0,0,0,0,0-0.1c0.1-0.1,0.1-0.2,0.2-0.3l0,0c0,0,0,0,0-0.1
		c0,0,0,0,0-0.1l11.7-15l-4.4-3.5l6.2-7.5l4.7,3.8l0,0l8.6-10.1l9.9,7.4l-6.5,8.1l-1.6,2l11,9l0.3-0.4c0,0,0.1-0.2,0.4-0.5
		c0,0,0.1-0.1,0.1-0.2l0,0c0-0.1,0.1-0.1,0.1-0.2c0.1-0.1,0.1-0.2,0.2-0.3l0,0c0.1-0.1,0.1-0.1,0.2-0.2s0.1-0.1,0.2-0.2
		c0,0,0,0,0.1-0.1s0.3-0.3,0.4-0.4c0.3-0.3,0.6-0.6,0.9-0.9l0,0l0,0c0.1-0.1,0.1-0.1,0.2-0.2l0.1-0.1l0.1-0.1
		c0.1-0.1,0.3-0.3,0.4-0.4l0.1-0.1l0,0c0.4-0.3,0.8-0.7,1.2-1c0.3-0.2,0.6-0.4,0.9-0.6c1.5-1,3.1-1.7,4.8-1.7c0.2,0,0.4,0,0.6,0
		c5.6,0.5,8,2.9,8.1,2.9l9.8,8l-5.4,7.7l-4.9-5.1c0,0,0,0-0.1-0.1l0,0l0,0c0,0,0-0.1-0.1-0.1l0,0l0,0l0,0c0,0-0.1-0.1-0.2-0.1l0,0
		l0,0l0,0c-0.1-0.1-0.2-0.1-0.3-0.2l0,0l0,0l0,0c0,0,0,0-0.1,0s-0.2-0.1-0.3-0.1l0,0l0,0c-0.1,0-0.2-0.1-0.4-0.1c-0.1,0-0.1,0-0.1,0
		h-0.1l0,0c-0.2,0-0.3-0.1-0.5-0.1c-0.1,0-0.1,0-0.2,0c-0.2,0-0.5,0-0.7,0l0,0c-0.2,0-0.4,0-0.6,0c-1.9,0.1-3,1.5-3.6,2.5
		c-0.4,0.6-0.5,1.1-0.6,1.1l-0.1,0.3l7.7,5.6l-5.4,7.1l-7.3-5.5L20.7,388z"/>
	<g id="TOOLFARM_-_Dk_Grey_-_Avenir_Next_Regular_100pt">
		<path class="st0" d="M-22.1,414.1h-1.7v-15.5h-5.7v-1.5h13.1v1.5h-5.7L-22.1,414.1L-22.1,414.1z"/>
		<path class="st0" d="M1.8,405.6c0,1.3-0.2,2.5-0.7,3.6c-0.4,1.1-1.1,2-1.9,2.8s-1.7,1.4-2.8,1.9c-1.1,0.4-2.3,0.7-3.5,0.7
			c-1.3,0-2.4-0.2-3.5-0.7c-1.1-0.4-2-1.1-2.8-1.9s-1.4-1.7-1.9-2.8c-0.4-1.1-0.7-2.3-0.7-3.6c0-1.3,0.2-2.5,0.7-3.6
			c0.4-1.1,1.1-2,1.9-2.8c0.8-0.8,1.7-1.4,2.8-1.9c1.1-0.4,2.3-0.7,3.5-0.7c1.3,0,2.4,0.2,3.5,0.7c1.1,0.4,2,1.1,2.8,1.9
			s1.4,1.7,1.9,2.8C1.5,403.1,1.8,404.3,1.8,405.6z M-0.1,405.6c0-1-0.2-1.9-0.5-2.8s-0.8-1.7-1.4-2.4c-0.6-0.7-1.3-1.2-2.2-1.6
			s-1.9-0.6-2.9-0.6c-1.1,0-2.1,0.2-2.9,0.6c-0.9,0.4-1.6,0.9-2.2,1.6c-0.6,0.7-1.1,1.5-1.4,2.4c-0.3,0.9-0.5,1.8-0.5,2.8
			s0.2,1.9,0.5,2.8s0.8,1.7,1.4,2.4c0.6,0.7,1.3,1.2,2.2,1.6s1.9,0.6,2.9,0.6c1.1,0,2.1-0.2,2.9-0.6c0.9-0.4,1.6-0.9,2.2-1.6
			s1.1-1.5,1.4-2.4C-0.2,407.5-0.1,406.6-0.1,405.6z"/>
		<path class="st0" d="M21.7,405.6c0,1.3-0.2,2.5-0.7,3.6c-0.4,1.1-1.1,2-1.9,2.8s-1.7,1.4-2.8,1.9c-1.1,0.4-2.3,0.7-3.5,0.7
			c-1.3,0-2.4-0.2-3.5-0.7c-1.1-0.4-2-1.1-2.8-1.9s-1.4-1.7-1.9-2.8c-0.4-1.1-0.7-2.3-0.7-3.6c0-1.3,0.2-2.5,0.7-3.6
			c0.4-1.1,1.1-2,1.9-2.8s1.7-1.4,2.8-1.9c1.1-0.4,2.3-0.7,3.5-0.7c1.3,0,2.4,0.2,3.5,0.7c1.1,0.4,2,1.1,2.8,1.9s1.4,1.7,1.9,2.8
			S21.7,404.3,21.7,405.6z M19.9,405.6c0-1-0.2-1.9-0.5-2.8s-0.8-1.7-1.4-2.4c-0.6-0.7-1.3-1.2-2.2-1.6c-0.9-0.4-1.9-0.6-2.9-0.6
			c-1.1,0-2.1,0.2-2.9,0.6c-0.9,0.4-1.6,0.9-2.2,1.6s-1.1,1.5-1.4,2.4s-0.5,1.8-0.5,2.8s0.2,1.9,0.5,2.8s0.8,1.7,1.4,2.4
			c0.6,0.7,1.3,1.2,2.2,1.6s1.9,0.6,2.9,0.6c1.1,0,2.1-0.2,2.9-0.6c0.9-0.4,1.6-0.9,2.2-1.6s1.1-1.5,1.4-2.4
			C19.7,407.5,19.9,406.6,19.9,405.6z"/>
		<path class="st0" d="M26.6,412.5h7.9v1.5h-9.7v-17h1.7v15.5H26.6z"/>
		<path class="st0" d="M38.3,414.1h-1.7v-17h10.3v1.5h-8.5v5.9h7.9v1.5h-7.9L38.3,414.1L38.3,414.1z"/>
		<path class="st0" d="M48.2,414.1h-1.9l7.4-17h1.7l7.3,17h-1.9l-1.9-4.5h-8.8L48.2,414.1z M50.7,408h7.5l-3.7-9L50.7,408z"/>
		<path class="st0" d="M66.4,414.1h-1.7v-17h5c0.8,0,1.6,0.1,2.3,0.2c0.7,0.2,1.3,0.4,1.8,0.8s0.9,0.8,1.2,1.4
			c0.3,0.6,0.4,1.3,0.4,2.1c0,0.6-0.1,1.2-0.3,1.7c-0.2,0.5-0.5,1-0.9,1.3c-0.4,0.4-0.8,0.7-1.4,0.9c-0.5,0.2-1.1,0.4-1.7,0.4l5,8.1
			H74l-4.7-8h-2.9V414.1z M66.4,404.6h3c1.4,0,2.5-0.3,3.2-0.8c0.8-0.5,1.1-1.3,1.1-2.3c0-0.6-0.1-1-0.3-1.4
			c-0.2-0.4-0.5-0.7-0.9-0.9c-0.4-0.2-0.8-0.4-1.3-0.5s-1.1-0.2-1.8-0.2h-3.1L66.4,404.6L66.4,404.6z"/>
		<path class="st0" d="M87,411.1L87,411.1l5.7-14.1h2.6v17h-1.7v-14.8l0,0L87.4,414h-0.9l-6.2-14.8l0,0V414h-1.7v-17h2.6L87,411.1z"
			/>
	</g>
</g>
<g>
	<g>
		<g>
			<path class="st0" d="M-13.1,263.3l-12.4-21v21h-9.8v-44.6h16c2.3,0,4.4,0.3,6.3,1s3.5,1.6,4.8,2.8s2.4,2.6,3.1,4.2
				c0.7,1.6,1.1,3.4,1.1,5.3c0,3.3-0.9,6.1-2.8,8.2c-1.9,2.1-4.2,3.6-7.2,4.4l11.8,18.6L-13.1,263.3L-13.1,263.3z M-13.7,232
				c0-1.5-0.5-2.8-1.6-3.7s-2.4-1.4-3.9-1.4h-6.2v10.7h6.2c1.7,0,3.1-0.5,4.1-1.5C-14.2,235.2-13.7,233.8-13.7,232z"/>
		</g>
		<g>
			<path class="st0" d="M2.5,263.3v-44.6h25.9v8.3H12.3v10.4h15v8.2h-15v9.4h17.1v8.2L2.5,263.3L2.5,263.3z"/>
		</g>
		<g>
			<path class="st0" d="M72.3,240.9c0,3.7-0.6,6.9-1.9,9.7c-1.3,2.8-3,5.1-5.2,7s-4.6,3.3-7.4,4.2c-2.8,1-5.7,1.4-8.6,1.4H35.6
				v-44.5h13.5c3.2,0,6.2,0.5,9,1.4c2.8,1,5.3,2.4,7.4,4.3c2.1,1.9,3.8,4.2,5,7C71.7,234.2,72.3,237.4,72.3,240.9z M62.2,240.9
				c0-2-0.3-3.8-0.9-5.5c-0.6-1.7-1.5-3.2-2.7-4.4s-2.5-2.2-4.1-3c-1.7-0.7-3.5-1-5.4-1h-3.7v28h3.7c2.1,0,3.9-0.4,5.6-1.2
				c1.6-0.8,3-1.8,4.1-3.1s2-2.8,2.6-4.5C61.9,244.6,62.2,242.8,62.2,240.9z"/>
		</g>
	</g>
	<g>
		<path class="st0" d="M106.6,248h15.8c-0.4,1.8-1.1,3.5-2.2,5.1c-1.1,1.6-2.4,3.1-4,4.2c-1.5,1.2-3.3,2.1-5.2,2.8s-4,1-6.1,1
			c-2.9,0-5.6-0.5-8-1.4s-4.6-2.3-6.4-4c-1.8-1.7-3.2-3.8-4.3-6.3c-1-2.5-1.6-5.2-1.6-8.2c0-2.8,0.5-5.5,1.5-7.9s2.4-4.6,4.2-6.4
			c1.8-1.8,3.9-3.3,6.3-4.3c2.4-1,5.1-1.6,7.9-1.6c1.5,0,2.9,0.1,4.2,0.3s2.5,0.6,3.7,1c1.1,0.5,2.2,1.1,3.3,1.9
			c1,0.8,2.1,1.7,3.2,2.9l0.1,0.2l2.1-2.2L121,225c-2-2.2-4.4-3.9-7.1-5.1c-2.7-1.2-5.8-1.8-9.3-1.8c-3.2,0-6.3,0.6-9.2,1.8
			c-2.8,1.2-5.3,2.8-7.4,4.9c-2.1,2.1-3.8,4.5-5,7.3s-1.8,5.9-1.8,9.1c0,3.4,0.6,6.5,1.8,9.3s2.9,5.2,5,7.2s4.6,3.6,7.4,4.7
			c2.8,1.1,5.9,1.7,9.2,1.7c2.8,0,5.5-0.5,8-1.5s4.6-2.4,6.5-4.1s3.4-3.7,4.5-6s1.7-4.7,1.9-7.2v-0.2h-19.2v2.9L106.6,248L106.6,248
			z"/>
		<rect x="133.3" y="218.7" class="st0" width="3.1" height="44.6"/>
		<path class="st0" d="M161.4,217.9h-1.8l-16.5,45l-0.1,0.3h3.3l6.1-16.9h16.1l6,16.8v0.1h3.3L161.4,217.9L161.4,217.9z
			 M167.5,243.6h-14.1l7-19.7L167.5,243.6z"/>
		<path class="st0" d="M216.2,257.3c0,0.4,0,0.7,0.1,1.1c0,0.1,0,0.2,0,0.2l-28-39.9l-0.1-0.1h-3.7v44.6h3.1v-37.5
			c0-0.4,0-0.9,0-1.2c0-0.4,0-0.7,0-1.1c0-0.1,0-0.2,0-0.2l28.3,40.1l0.1,0.1h3.5v-44.7h-3.1v38.6L216.2,257.3L216.2,257.3z"/>
		<polygon class="st0" points="225.9,218.7 225.9,221.4 237.1,221.4 237.1,263.3 240.2,263.3 240.2,221.4 251.3,221.4 251.3,218.7 
					"/>
	</g>
</g>
<g>
	<path class="st1" d="M90.8,13H76v74h14.8V13L90.8,13z M92.7,13v74c1.7,0,14.8,0,14.8,0s0-24.1,0-37C107.5,20.4,96,13,92.7,13
		L92.7,13z M125.9,40.7L125.9,40.7V13c2.9,0,12.2,5.9,14.5,27.7l0,0H125.9L125.9,40.7z M124,13c-3.3,0-14.8,7.4-14.8,37
		c0,29.8,11.5,37,14.8,37V13L124,13z M140.4,59.3h-14.5V87C128.8,87,138.1,81.3,140.4,59.3L140.4,59.3z M159.1,13v74
		c1.7,0,14.8,0,14.8,0s0-24.1,0-37C173.9,20.4,162.6,13,159.1,13L159.1,13z M142.6,13v74c1.9,0,14.8,0,14.8,0s0-24.1,0-37
		C157.2,20.4,145.9,13,142.6,13L142.6,13z M175.8,13v74c1.9,0,14.8,0,14.8,0s0-24.1,0-37C190.6,20.4,179.1,13,175.8,13L175.8,13z
		 M209.2,13v74H224V13H209.2L209.2,13z M207.3,13c-3.3,0-14.8,7.4-14.8,37c0,29.6,11.5,37,14.8,37V13L207.3,13z"/>
</g>
</svg>
