<?xml version="1.0" encoding="utf-8"?>
<!-- Generator: Adobe Illustrator 19.2.1, SVG Export Plug-In . SVG Version: 6.00 Build 0)  -->
<svg version="1.1" id="Layer_1" xmlns="http://www.w3.org/2000/svg" xmlns:xlink="http://www.w3.org/1999/xlink" x="0px" y="0px"
	 viewBox="0 0 300 100" style="enable-background:new 0 0 300 100;" xml:space="preserve">
<style type="text/css">
	.st0{fill:#6A787C;}
</style>
<g>
	<g>
		<g>
			<path class="st0" d="M28.9,72.3l-12.4-21v21H6.7V27.7h16c2.3,0,4.4,0.3,6.3,1s3.5,1.6,4.8,2.8c1.3,1.2,2.4,2.6,3.1,4.2
				c0.7,1.6,1.1,3.4,1.1,5.3c0,3.3-0.9,6.1-2.8,8.2c-1.9,2.1-4.2,3.6-7.2,4.4l11.8,18.6L28.9,72.3L28.9,72.3z M28.3,41
				c0-1.5-0.5-2.8-1.6-3.7s-2.4-1.4-3.9-1.4h-6.2v10.7h6.2c1.7,0,3.1-0.5,4.1-1.5C27.8,44.2,28.3,42.8,28.3,41z"/>
		</g>
		<g>
			<path class="st0" d="M44.5,72.3V27.7h25.9V36H54.3v10.4h15v8.2h-15V64h17.1v8.2H44.5V72.3z"/>
		</g>
		<g>
			<path class="st0" d="M114.3,49.9c0,3.7-0.6,6.9-1.9,9.7s-3,5.1-5.2,7s-4.6,3.3-7.4,4.2c-2.8,1-5.7,1.4-8.6,1.4H77.6V27.7h13.5
				c3.2,0,6.2,0.5,9,1.4c2.8,1,5.3,2.4,7.4,4.3s3.8,4.2,5,7S114.3,46.4,114.3,49.9z M104.2,49.9c0-2-0.3-3.8-0.9-5.5
				s-1.5-3.2-2.7-4.4s-2.5-2.2-4.1-3c-1.7-0.7-3.5-1-5.4-1h-3.7v28h3.7c2.1,0,3.9-0.4,5.6-1.2c1.6-0.8,3-1.8,4.1-3.1s2-2.8,2.6-4.5
				C103.9,53.6,104.2,51.8,104.2,49.9z"/>
		</g>
	</g>
	<g>
		<path class="st0" d="M148.6,57h15.8c-0.4,1.8-1.1,3.5-2.2,5.1c-1.1,1.6-2.4,3.1-4,4.2c-1.5,1.2-3.3,2.1-5.2,2.8
			c-1.9,0.7-4,1-6.1,1c-2.9,0-5.6-0.5-8-1.4s-4.6-2.3-6.4-4c-1.8-1.7-3.2-3.8-4.3-6.3c-1-2.5-1.6-5.2-1.6-8.2c0-2.8,0.5-5.5,1.5-7.9
			c1-2.4,2.4-4.6,4.2-6.4c1.8-1.8,3.9-3.3,6.3-4.3c2.4-1,5.1-1.6,7.9-1.6c1.5,0,2.9,0.1,4.2,0.3c1.3,0.2,2.5,0.6,3.7,1
			c1.1,0.5,2.2,1.1,3.3,1.9c1,0.8,2.1,1.7,3.2,2.9l0.1,0.2l2.1-2.2L163,34c-2-2.2-4.4-3.9-7.1-5.1c-2.7-1.2-5.8-1.8-9.3-1.8
			c-3.2,0-6.3,0.6-9.2,1.8c-2.8,1.2-5.3,2.8-7.4,4.9c-2.1,2.1-3.8,4.5-5,7.3s-1.8,5.9-1.8,9.1c0,3.4,0.6,6.5,1.8,9.3
			c1.2,2.8,2.9,5.2,5,7.2c2.1,2,4.6,3.6,7.4,4.7c2.8,1.1,5.9,1.7,9.2,1.7c2.8,0,5.5-0.5,8-1.5s4.6-2.4,6.5-4.1s3.4-3.7,4.5-6
			s1.7-4.7,1.9-7.2v-0.2h-19.2V57H148.6z"/>
		<rect x="175.3" y="27.7" class="st0" width="3.1" height="44.6"/>
		<path class="st0" d="M203.4,26.9h-1.8l-16.5,45l-0.1,0.3h3.3l6.1-16.9h16.1l6,16.8v0.1h3.3L203.4,27L203.4,26.9z M209.5,52.6
			h-14.1l7-19.7L209.5,52.6z"/>
		<path class="st0" d="M258.2,66.3c0,0.4,0,0.7,0.1,1.1c0,0.1,0,0.2,0,0.2l-28-39.9l-0.1-0.1h-3.7v44.6h3.1V34.7c0-0.4,0-0.9,0-1.2
			c0-0.4,0-0.7,0-1.1c0-0.1,0-0.2,0-0.2l28.3,40.1l0.1,0.1h3.5V27.7h-3.1v38.6H258.2z"/>
		<polygon class="st0" points="267.9,27.7 267.9,30.4 279.1,30.4 279.1,72.3 282.2,72.3 282.2,30.4 293.3,30.4 293.3,27.7 		"/>
	</g>
</g>
</svg>
