<?xml version="1.0" encoding="utf-8"?>
<!-- Generator: Adobe Illustrator 19.2.1, SVG Export Plug-In . SVG Version: 6.00 Build 0)  -->
<svg version="1.1" id="cart" xmlns="http://www.w3.org/2000/svg" xmlns:xlink="http://www.w3.org/1999/xlink" x="0px" y="0px"
	 viewBox="0 0 50 37.9" style="enable-background:new 0 0 50 37.9;" xml:space="preserve">
<style type="text/css">
	.st0{fill:#FFFFFF;}
</style>
<title>service-icon-cart</title>
<polygon class="st0" points="50,16.6 27.3,16.6 27.3,14.6 48,14.6 48,13.8 26.8,13.8 26.8,11.8 50,11.8 "/>
<polygon class="st0" points="22.7,16.6 0,16.6 0,11.8 23.2,11.8 23.2,13.8 2,13.8 2,14.6 22.7,14.6 "/>
<path class="st0" d="M41.3,37.9H8.7c-1.4,0-2.7-1-2.9-2.5L1.8,14.6h20.9v2H4.2l3.5,18.5c0.1,0.5,0.5,0.8,1,0.8h32.7
	c0.5,0,0.9-0.3,1-0.8l3.5-18.5H27.3v-2h20.9l-3.9,20.9C44,36.9,42.8,37.9,41.3,37.9z"/>
<path class="st0" d="M25,18.1c-1.4,0-2.6-0.8-3.2-2.1c-0.4-0.9-0.4-1.9,0-2.8c0.8-1.8,2.8-2.6,4.6-1.8c0.8,0.4,1.4,1,1.8,1.8
	c0.4,0.9,0.4,1.9,0,2.8C27.6,17.3,26.4,18.1,25,18.1z M25,13.1c-0.6,0-1.1,0.4-1.4,0.9c-0.2,0.4-0.2,0.8,0,1.2
	c0.3,0.8,1.2,1.1,2,0.8c0.3-0.2,0.6-0.4,0.8-0.8c0.1-0.2,0.1-0.4,0.1-0.6c0-0.2,0-0.4-0.1-0.6C26.1,13.5,25.6,13.1,25,13.1z"/>
<polygon class="st0" points="25.7,15.3 24.3,13.9 38.2,0 41.9,3.7 32,13.5 30.6,12.1 39,3.7 38.2,2.8 "/>
<path class="st0" d="M13.5,34.3h-1c-1.1,0-2-0.9-2-2v-12c0-1.1,0.9-2,2-2h1c1.1,0,2,0.9,2,2v12C15.5,33.4,14.6,34.3,13.5,34.3z
	 M13.5,20.3h-1v12h1V20.3z"/>
<path class="st0" d="M21.5,34.3h-1c-1.1,0-2-0.9-2-2v-12c0-1.1,0.9-2,2-2h1c1.1,0,2,0.9,2,2v12C23.5,33.4,22.6,34.3,21.5,34.3z
	 M21.5,20.3h-1v12h1V20.3z"/>
<path class="st0" d="M29.5,34.3h-1c-1.1,0-2-0.9-2-2v-12c0-1.1,0.9-2,2-2h1c1.1,0,2,0.9,2,2v12C31.5,33.4,30.6,34.3,29.5,34.3z
	 M29.5,20.3h-1v12h1V20.3z"/>
<path class="st0" d="M37.5,34.3h-1c-1.1,0-2-0.9-2-2v-12c0-1.1,0.9-2,2-2h1c1.1,0,2,0.9,2,2v12C39.5,33.4,38.6,34.3,37.5,34.3z
	 M37.5,20.3h-1v12h1V20.3z"/>
</svg>
