<svg id="software" xmlns="http://www.w3.org/2000/svg" viewBox="0 0 50 50"><defs><style>.cls-1{fill:#697175;}</style></defs><title>service-icon-software</title><path class="cls-1" d="M41,54H23l1.59-11.44H39.37ZM25.34,52H38.66l-1-7.44H26.37Z" transform="translate(-7 -7)"/><path class="cls-1" d="M55,44.56H9a2,2,0,0,1-2-2v-8H57v8A2,2,0,0,1,55,44.56Zm-46-8v6H55v-6H9Z" transform="translate(-7 -7)"/><path class="cls-1" d="M57,36.56H7V10a3,3,0,0,1,3-3H54a3,3,0,0,1,3,3V36.56Zm-48-2H55V10a1,1,0,0,0-1-1H10a1,1,0,0,0-1,1V34.56Z" transform="translate(-7 -7)"/><path class="cls-1" d="M32,42.06a2.5,2.5,0,1,1,2.5-2.5A2.5,2.5,0,0,1,32,42.06Zm0-3a0.5,0.5,0,0,0-.5.5,0.5,0.5,0,1,0,1,0A0.5,0.5,0,0,0,32,39.06Z" transform="translate(-7 -7)"/><path class="cls-1" d="M44,57H20V52H44v5ZM22,55H42V54H22v1Z" transform="translate(-7 -7)"/><rect class="cls-1" x="16.84" y="1" width="1.92" height="27.56"/><rect class="cls-1" x="4.23" y="5.78" width="6.01" height="1.92"/><rect class="cls-1" x="4.23" y="8.78" width="9.04" height="1.92"/><rect class="cls-1" x="4.23" y="11.78" width="10.33" height="1.92"/><rect class="cls-1" x="7.26" y="14.78" width="6.01" height="1.92"/><rect class="cls-1" x="4.23" y="17.78" width="6.01" height="1.92"/><rect class="cls-1" x="7.26" y="20.78" width="6.01" height="1.92"/><rect class="cls-1" x="20.66" y="6.86" width="3" height="1.92"/><rect class="cls-1" x="24.67" y="6.86" width="8.78" height="1.92"/><rect class="cls-1" x="34.45" y="6.86" width="3" height="1.92"/><rect class="cls-1" x="38.45" y="6.86" width="1.5" height="1.92"/><rect class="cls-1" x="40.95" y="6.86" width="5.38" height="1.92"/><rect class="cls-1" x="22.16" y="9.86" width="5.38" height="1.92"/><rect class="cls-1" x="28.54" y="9.86" width="6.15" height="1.92"/><rect class="cls-1" x="35.7" y="9.86" width="1.5" height="1.92"/><rect class="cls-1" x="20.66" y="12.86" width="8.78" height="1.92"/><rect class="cls-1" x="30.44" y="12.86" width="5.38" height="1.92"/><rect class="cls-1" x="36.83" y="12.86" width="5.38" height="1.92"/><rect class="cls-1" x="24.67" y="15.86" width="8.78" height="1.92"/><rect class="cls-1" x="34.45" y="15.86" width="3" height="1.92"/><rect class="cls-1" x="38.45" y="15.86" width="1.5" height="1.92"/><rect class="cls-1" x="40.95" y="15.86" width="5.38" height="1.92"/><rect class="cls-1" x="22.16" y="18.86" width="5.38" height="1.92"/><rect class="cls-1" x="28.54" y="18.86" width="6.15" height="1.92"/><rect class="cls-1" x="35.7" y="18.86" width="1.5" height="1.92"/><rect class="cls-1" x="24.85" y="21.86" width="4.59" height="1.92"/><rect class="cls-1" x="30.44" y="21.86" width="5.38" height="1.92"/><rect class="cls-1" x="36.83" y="21.86" width="5.38" height="1.92"/></svg>