<?xml version="1.0" encoding="utf-8"?>
<!-- Generator: Adobe Illustrator 19.2.1, SVG Export Plug-In . SVG Version: 6.00 Build 0)  -->
<svg version="1.1" id="intergation" xmlns="http://www.w3.org/2000/svg" xmlns:xlink="http://www.w3.org/1999/xlink" x="0px"
	 y="0px" viewBox="0 0 49.9 49.9" style="enable-background:new 0 0 49.9 49.9;" xml:space="preserve">
<style type="text/css">
	.st0{fill:#FFFFFF;}
</style>
<title>service-icon-integration</title>
<path class="st0" d="M49.9,42h-9v-2h7V4.3c0-1.3-1-2.3-2.3-2.3H12.3C11,2,9.9,3,9.9,4.3v9h-2v-9C7.9,1.9,9.9,0,12.3,0h33.3
	c2.4,0,4.3,1.9,4.3,4.3V42z"/>
<rect x="8.9" y="5" class="st0" width="40" height="2"/>
<rect x="21.5" y="2.5" class="st0" width="23.3" height="2"/>
<rect x="13.1" y="2.5" class="st0" width="1.7" height="2"/>
<rect x="16.4" y="2.5" class="st0" width="1.7" height="2"/>
<path class="st0" d="M41.9,49.9H0V16.3c0.1-2.3,2-4,4.3-3.9h33.3c2.3-0.1,4.2,1.7,4.3,3.9L41.9,49.9L41.9,49.9z M1.9,48H40V16.3
	c-0.1-1.2-1.2-2.1-2.4-2H4.3c-1.2-0.1-2.3,0.8-2.4,2L1.9,48L1.9,48z"/>
<rect x="0.9" y="17.4" class="st0" width="40" height="2"/>
<rect x="13.5" y="14.9" class="st0" width="23.3" height="2"/>
<rect x="5.1" y="14.9" class="st0" width="1.7" height="2"/>
<rect x="8.4" y="14.9" class="st0" width="1.7" height="2"/>
<rect x="4.7" y="22.7" class="st0" width="3.8" height="2"/>
<rect x="9.8" y="22.7" class="st0" width="11.1" height="2"/>
<rect x="22.1" y="22.7" class="st0" width="3.8" height="2"/>
<rect x="27.2" y="22.7" class="st0" width="1.9" height="2"/>
<rect x="30.4" y="22.7" class="st0" width="6.8" height="2"/>
<rect x="6.6" y="25.7" class="st0" width="6.8" height="2"/>
<rect x="14.7" y="25.7" class="st0" width="7.8" height="2"/>
<rect x="23.7" y="25.7" class="st0" width="1.9" height="2"/>
<rect x="4.7" y="28.7" class="st0" width="11.1" height="2"/>
<rect x="17.1" y="28.7" class="st0" width="6.8" height="2"/>
<rect x="25.2" y="28.7" class="st0" width="6.8" height="2"/>
<rect x="9.8" y="31.7" class="st0" width="11.1" height="2"/>
<rect x="22.1" y="31.7" class="st0" width="3.8" height="2"/>
<rect x="27.2" y="31.7" class="st0" width="1.9" height="2"/>
<rect x="30.4" y="31.7" class="st0" width="6.8" height="2"/>
<rect x="6.6" y="34.7" class="st0" width="6.8" height="2"/>
<rect x="14.7" y="34.7" class="st0" width="7.8" height="2"/>
<rect x="23.7" y="34.7" class="st0" width="1.9" height="2"/>
<rect x="10" y="37.7" class="st0" width="5.8" height="2"/>
<rect x="17.1" y="37.7" class="st0" width="6.8" height="2"/>
<rect x="25.2" y="37.7" class="st0" width="6.8" height="2"/>
<rect x="6.6" y="40.7" class="st0" width="6.8" height="2"/>
<rect x="14.7" y="40.7" class="st0" width="7.8" height="2"/>
<rect x="23.7" y="40.7" class="st0" width="1.9" height="2"/>
<rect x="10" y="43.7" class="st0" width="5.8" height="2"/>
<rect x="17.1" y="43.7" class="st0" width="6.8" height="2"/>
<rect x="25.2" y="43.7" class="st0" width="6.8" height="2"/>
</svg>
