<svg id="intergation" xmlns="http://www.w3.org/2000/svg" viewBox="0 0 49.94 49.94"><defs><style>.cls-1{fill:#697175;}</style></defs><title>service-icon-integration</title><path class="cls-1" d="M57,49H48V47h7V11.33A2.34,2.34,0,0,0,52.67,9H19.33A2.34,2.34,0,0,0,17,11.33v9H15v-9A4.34,4.34,0,0,1,19.33,7H52.67A4.34,4.34,0,0,1,57,11.33V49Z" transform="translate(-7.06 -7)"/><rect class="cls-1" x="8.94" y="5" width="40" height="2"/><rect class="cls-1" x="21.5" y="2.5" width="23.28" height="2"/><rect class="cls-1" x="13.11" y="2.5" width="1.67" height="2"/><rect class="cls-1" x="16.44" y="2.5" width="1.67" height="2"/><path class="cls-1" d="M48.94,56.94H7.06V23.34a4.11,4.11,0,0,1,4.28-3.91H44.67a4.11,4.11,0,0,1,4.28,3.91V56.94Zm-40-1.89H47.06V23.34a2.23,2.23,0,0,0-2.39-2H11.33a2.23,2.23,0,0,0-2.39,2V55.06Z" transform="translate(-7.06 -7)"/><rect class="cls-1" x="0.94" y="17.37" width="40" height="2"/><rect class="cls-1" x="13.5" y="14.87" width="23.28" height="2"/><rect class="cls-1" x="5.11" y="14.87" width="1.67" height="2"/><rect class="cls-1" x="8.44" y="14.87" width="1.67" height="2"/><rect class="cls-1" x="4.67" y="22.68" width="3.81" height="2"/><rect class="cls-1" x="9.75" y="22.68" width="11.13" height="2"/><rect class="cls-1" x="22.15" y="22.68" width="3.81" height="2"/><rect class="cls-1" x="27.23" y="22.68" width="1.9" height="2"/><rect class="cls-1" x="30.4" y="22.68" width="6.82" height="2"/><rect class="cls-1" x="6.58" y="25.68" width="6.82" height="2"/><rect class="cls-1" x="14.67" y="25.68" width="7.8" height="2"/><rect class="cls-1" x="23.73" y="25.68" width="1.9" height="2"/><rect class="cls-1" x="4.67" y="28.68" width="11.13" height="2"/><rect class="cls-1" x="17.07" y="28.68" width="6.82" height="2"/><rect class="cls-1" x="25.17" y="28.68" width="6.82" height="2"/><rect class="cls-1" x="9.75" y="31.68" width="11.13" height="2"/><rect class="cls-1" x="22.15" y="31.68" width="3.81" height="2"/><rect class="cls-1" x="27.23" y="31.68" width="1.9" height="2"/><rect class="cls-1" x="30.4" y="31.68" width="6.82" height="2"/><rect class="cls-1" x="6.58" y="34.68" width="6.82" height="2"/><rect class="cls-1" x="14.67" y="34.68" width="7.8" height="2"/><rect class="cls-1" x="23.73" y="34.68" width="1.9" height="2"/><rect class="cls-1" x="9.99" y="37.68" width="5.82" height="2"/><rect class="cls-1" x="17.07" y="37.68" width="6.82" height="2"/><rect class="cls-1" x="25.17" y="37.68" width="6.82" height="2"/><rect class="cls-1" x="6.58" y="40.68" width="6.82" height="2"/><rect class="cls-1" x="14.67" y="40.68" width="7.8" height="2"/><rect class="cls-1" x="23.73" y="40.68" width="1.9" height="2"/><rect class="cls-1" x="9.99" y="43.68" width="5.82" height="2"/><rect class="cls-1" x="17.07" y="43.68" width="6.82" height="2"/><rect class="cls-1" x="25.17" y="43.68" width="6.82" height="2"/></svg>