<?xml version="1.0" encoding="utf-8"?>
<!-- Generator: Adobe Illustrator 19.2.1, SVG Export Plug-In . SVG Version: 6.00 Build 0)  -->
<svg version="1.1" id="seo" xmlns="http://www.w3.org/2000/svg" xmlns:xlink="http://www.w3.org/1999/xlink" x="0px" y="0px"
	 viewBox="0 0 50 50" style="enable-background:new 0 0 50 50;" xml:space="preserve">
<style type="text/css">
	.st0{fill:#FFFFFF;}
</style>
<title>service-icon-seo</title>
<path class="st0" d="M50,50H0V5c0-2.8,2.2-5,5-5h40c2.8,0,5,2.2,5,5V50z M2,48h46V5c0-1.7-1.3-3-3-3H5C3.3,2,2,3.3,2,5V48z
	 M20.4,31.7c-0.9,0-1.8-0.2-2.7-0.5c-4.3-1.5-6.5-6.2-5.1-10.4s6.2-6.5,10.4-5.1c4.3,1.5,6.5,6.2,5.1,10.4c-0.4,1.2-1.1,2.2-1.9,3.1
	C24.6,30.9,22.5,31.7,20.4,31.7z M20.4,17.3c-0.7,0-1.4,0.1-2,0.3c-3.2,1.1-5,4.6-3.8,7.9c0.6,1.8,2,3.2,3.8,3.8l0,0
	c1.5,0.5,3,0.4,4.5-0.2c3.1-1.4,4.6-5,3.2-8.2C25,18.8,22.8,17.3,20.4,17.3z"/>
<rect x="28.3" y="27" transform="matrix(0.7071 -0.7071 0.7071 0.7071 -14.3681 30.1954)" class="st0" width="2" height="10.8"/>
<rect x="1" y="6" class="st0" width="48" height="2"/>
<path class="st0" d="M19,44H5V12h14v5.4l-0.7,0.2c-3.2,1.1-5,4.6-3.8,7.9c0.6,1.8,2,3.2,3.8,3.8l0.7,0.2V44z M7,42h10V31
	c-4.1-1.8-6-6.7-4.2-10.8c0.8-1.9,2.3-3.4,4.2-4.2v-2H7V42z"/>
<path class="st0" d="M20.4,31.7c-0.9,0-1.8-0.2-2.7-0.5c-4.3-1.5-6.5-6.2-5.1-10.4s6.2-6.5,10.4-5.1c4.3,1.5,6.5,6.2,5.1,10.4
	c-0.4,1.2-1.1,2.2-1.9,3.1C24.6,30.9,22.5,31.7,20.4,31.7z M20.4,17.3c-0.7,0-1.4,0.1-2,0.3c-3.2,1.1-4.9,4.6-3.8,7.8
	c1.1,3.2,4.6,4.9,7.8,3.8c3.2-1.1,4.9-4.6,3.8-7.8C25.3,19,23,17.3,20.4,17.3z"/>
<path class="st0" d="M45,44H22.2V29.5l0.6-0.3c3.2-1.3,4.6-5,3.3-8.1c-0.6-1.5-1.8-2.6-3.3-3.3l-0.6-0.3V12H45V44z M24.2,42H43V14
	H24.2v2.3c4,2.1,5.6,7.1,3.4,11.1c-0.8,1.5-2,2.7-3.4,3.4V42z"/>
<rect x="26.5" y="17.2" class="st0" width="14.2" height="2"/>
<rect x="27.4" y="21.1" class="st0" width="13.3" height="2"/>
<rect x="26.5" y="25" class="st0" width="14.2" height="2"/>
<rect x="26.5" y="29" class="st0" width="14.2" height="2"/>
<rect x="26.5" y="32.9" class="st0" width="14.2" height="2"/>
<rect x="26.5" y="36.8" class="st0" width="14.2" height="2"/>
<rect x="16.1" y="3" class="st0" width="27.9" height="2"/>
<rect x="6" y="3" class="st0" width="2" height="2"/>
<rect x="10" y="3" class="st0" width="2" height="2"/>
</svg>
