<svg id="mobile" xmlns="http://www.w3.org/2000/svg" viewBox="0 0 32 50"><defs><style>.cls-1{fill:#697175;}</style></defs><title>service-icon-mobile</title><path class="cls-1" d="M45.06,57H19a3,3,0,0,1-3-2.94V9.94A3,3,0,0,1,19,7H45.06A2.94,2.94,0,0,1,48,9.94V54.06A2.94,2.94,0,0,1,45.06,57ZM19,9a1,1,0,0,0-1,.94V54.06A1,1,0,0,0,19,55H45.06A0.94,0.94,0,0,0,46,54.06V9.94A0.94,0.94,0,0,0,45.06,9H19Z" transform="translate(-16 -7)"/><path class="cls-1" d="M45,47.11H19v-34H45v34Zm-24-2H43v-30H21v30Z" transform="translate(-16 -7)"/><path class="cls-1" d="M45,47.11H19v-34H45v34Zm-24-2H43v-30H21v30Z" transform="translate(-16 -7)"/><path class="cls-1" d="M32,54.55a3.5,3.5,0,1,1,3.5-3.5A3.5,3.5,0,0,1,32,54.55Zm0-5a1.5,1.5,0,1,0,1.5,1.5A1.5,1.5,0,0,0,32,49.55Z" transform="translate(-16 -7)"/><path class="cls-1" d="M32,33.18a5.75,5.75,0,1,1,5.75-5.75A5.76,5.76,0,0,1,32,33.18Zm0-9.5a3.75,3.75,0,1,0,3.75,3.75A3.75,3.75,0,0,0,32,23.68Z" transform="translate(-16 -7)"/><path class="cls-1" d="M45,20.11H19v-7H45v7Zm-24-2H43v-3H21v3Z" transform="translate(-16 -7)"/><rect class="cls-1" x="6.5" y="28.62" width="19" height="2"/><rect class="cls-1" x="6.5" y="31.62" width="19" height="2"/><rect class="cls-1" x="13.5" y="3.06" width="9" height="2"/><rect class="cls-1" x="10" y="3.06" width="2" height="2"/></svg>