<svg id="cart" xmlns="http://www.w3.org/2000/svg" viewBox="0 0 50 37.93"><defs><style>.cls-1{fill:#697175;}</style></defs><title>service-icon-cart</title><polygon class="cls-1" points="50 16.6 27.29 16.6 27.29 14.6 48 14.6 48 13.84 26.76 13.84 26.76 11.84 50 11.84 50 16.6"/><polygon class="cls-1" points="22.71 16.6 0 16.6 0 11.84 23.24 11.84 23.24 13.84 2 13.84 2 14.6 22.71 14.6 22.71 16.6"/><path class="cls-1" d="M48.34,50.91H15.66a3,3,0,0,1-2.95-2.45L8.79,27.57H29.71v2H11.21l3.48,18.52a1,1,0,0,0,1,.82H48.34a1,1,0,0,0,1-.82l3.47-18.52H34.29v-2H55.21L51.29,48.46A3,3,0,0,1,48.34,50.91Z" transform="translate(-7 -12.97)"/><path class="cls-1" d="M32,31.07A3.51,3.51,0,0,1,28.8,29a3.48,3.48,0,0,1,0-2.82,3.5,3.5,0,0,1,6.41,0,3.49,3.49,0,0,1,0,2.82A3.51,3.51,0,0,1,32,31.07Zm0-5a1.51,1.51,0,0,0-1.38.91,1.49,1.49,0,0,0,0,1.18,1.5,1.5,0,0,0,2.75,0,1.42,1.42,0,0,0,.12-0.6A1.4,1.4,0,0,0,33.38,27,1.51,1.51,0,0,0,32,26.07Z" transform="translate(-7 -12.97)"/><polygon class="cls-1" points="25.71 15.31 24.29 13.89 38.19 0 41.88 3.69 32.05 13.52 30.64 12.1 39.05 3.69 38.19 2.83 25.71 15.31"/><path class="cls-1" d="M20.5,47.24h-1a2,2,0,0,1-2-2v-12a2,2,0,0,1,2-2h1a2,2,0,0,1,2,2v12A2,2,0,0,1,20.5,47.24Zm0-14h-1v12h1v-12Z" transform="translate(-7 -12.97)"/><path class="cls-1" d="M28.5,47.24h-1a2,2,0,0,1-2-2v-12a2,2,0,0,1,2-2h1a2,2,0,0,1,2,2v12A2,2,0,0,1,28.5,47.24Zm0-14h-1v12h1v-12Z" transform="translate(-7 -12.97)"/><path class="cls-1" d="M36.5,47.24h-1a2,2,0,0,1-2-2v-12a2,2,0,0,1,2-2h1a2,2,0,0,1,2,2v12A2,2,0,0,1,36.5,47.24Zm0-14h-1v12h1v-12Z" transform="translate(-7 -12.97)"/><path class="cls-1" d="M44.5,47.24h-1a2,2,0,0,1-2-2v-12a2,2,0,0,1,2-2h1a2,2,0,0,1,2,2v12A2,2,0,0,1,44.5,47.24Zm0-14h-1v12h1v-12Z" transform="translate(-7 -12.97)"/></svg>