<?xml version="1.0" encoding="utf-8"?>
<!-- Generator: Adobe Illustrator 19.2.1, SVG Export Plug-In . SVG Version: 6.00 Build 0)  -->
<svg version="1.1" id="mobile" xmlns="http://www.w3.org/2000/svg" xmlns:xlink="http://www.w3.org/1999/xlink" x="0px" y="0px"
	 viewBox="0 0 32 50" style="enable-background:new 0 0 32 50;" xml:space="preserve">
<style type="text/css">
	.st0{fill:#FFFFFF;}
</style>
<title>service-icon-mobile</title>
<path class="st0" d="M29.1,50H3c-1.6,0-3-1.3-3-2.9V2.9C0,1.3,1.4,0,3,0h26.1C30.7,0,32,1.3,32,2.9v44.1C32,48.7,30.7,50,29.1,50z
	 M3,2C2.5,2,2,2.4,2,2.9v44.1C2,47.6,2.5,48,3,48h26.1c0.5,0,0.9-0.4,0.9-0.9V2.9C30,2.4,29.6,2,29.1,2H3z"/>
<path class="st0" d="M29,40.1H3v-34h26V40.1z M5,38.1h22v-30H5V38.1z"/>
<path class="st0" d="M29,40.1H3v-34h26V40.1z M5,38.1h22v-30H5V38.1z"/>
<path class="st0" d="M16,47.5c-1.9,0-3.5-1.6-3.5-3.5s1.6-3.5,3.5-3.5s3.5,1.6,3.5,3.5l0,0C19.5,46,17.9,47.5,16,47.5z M16,42.5
	c-0.8,0-1.5,0.7-1.5,1.5s0.7,1.5,1.5,1.5s1.5-0.7,1.5-1.5S16.8,42.5,16,42.5z"/>
<path class="st0" d="M16,26.2c-3.2,0-5.8-2.6-5.8-5.8s2.6-5.8,5.8-5.8s5.8,2.6,5.8,5.8l0,0C21.7,23.6,19.2,26.2,16,26.2z M16,16.7
	c-2.1,0-3.8,1.7-3.8,3.8s1.7,3.8,3.8,3.8s3.8-1.7,3.8-3.8S18.1,16.7,16,16.7L16,16.7z"/>
<path class="st0" d="M29,13.1H3v-7h26V13.1z M5,11.1h22v-3H5V11.1z"/>
<rect x="6.5" y="28.6" class="st0" width="19" height="2"/>
<rect x="6.5" y="31.6" class="st0" width="19" height="2"/>
<rect x="13.5" y="3.1" class="st0" width="9" height="2"/>
<rect x="10" y="3.1" class="st0" width="2" height="2"/>
</svg>
