<?xml version="1.0" encoding="utf-8"?>
<!-- Generator: Adobe Illustrator 19.2.1, SVG Export Plug-In . SVG Version: 6.00 Build 0)  -->
<svg version="1.1" id="software" xmlns="http://www.w3.org/2000/svg" xmlns:xlink="http://www.w3.org/1999/xlink" x="0px" y="0px"
	 viewBox="0 0 50 50" style="enable-background:new 0 0 50 50;" xml:space="preserve">
<style type="text/css">
	.st0{fill:#FFFFFF;}
</style>
<title>service-icon-software</title>
<path class="st0" d="M34,47H16l1.6-11.4h14.8L34,47z M18.3,45h13.3l-1-7.4H19.4L18.3,45z"/>
<path class="st0" d="M48,37.6H2c-1.1,0-2-0.9-2-2v-8h50v8C50,36.7,49.1,37.6,48,37.6z M2,29.6v6h46v-6H2z"/>
<path class="st0" d="M50,29.6H0V3c0-1.7,1.3-3,3-3h44c1.7,0,3,1.3,3,3V29.6z M2,27.6h46V3c0-0.6-0.4-1-1-1H3C2.4,2,2,2.4,2,3V27.6z"
	/>
<path class="st0" d="M25,35.1c-1.4,0-2.5-1.1-2.5-2.5s1.1-2.5,2.5-2.5c1.4,0,2.5,1.1,2.5,2.5S26.4,35.1,25,35.1z M25,32.1
	c-0.3,0-0.5,0.2-0.5,0.5s0.2,0.5,0.5,0.5s0.5-0.2,0.5-0.5S25.3,32.1,25,32.1z"/>
<path class="st0" d="M37,50H13v-5h24V50z M15,48h20v-1H15V48z"/>
<rect x="16.8" y="1" class="st0" width="1.9" height="27.6"/>
<rect x="4.2" y="5.8" class="st0" width="6" height="1.9"/>
<rect x="4.2" y="8.8" class="st0" width="9" height="1.9"/>
<rect x="4.2" y="11.8" class="st0" width="10.3" height="1.9"/>
<rect x="7.3" y="14.8" class="st0" width="6" height="1.9"/>
<rect x="4.2" y="17.8" class="st0" width="6" height="1.9"/>
<rect x="7.3" y="20.8" class="st0" width="6" height="1.9"/>
<rect x="20.7" y="6.9" class="st0" width="3" height="1.9"/>
<rect x="24.7" y="6.9" class="st0" width="8.8" height="1.9"/>
<rect x="34.5" y="6.9" class="st0" width="3" height="1.9"/>
<rect x="38.5" y="6.9" class="st0" width="1.5" height="1.9"/>
<rect x="41" y="6.9" class="st0" width="5.4" height="1.9"/>
<rect x="22.2" y="9.9" class="st0" width="5.4" height="1.9"/>
<rect x="28.5" y="9.9" class="st0" width="6.2" height="1.9"/>
<rect x="35.7" y="9.9" class="st0" width="1.5" height="1.9"/>
<rect x="20.7" y="12.9" class="st0" width="8.8" height="1.9"/>
<rect x="30.4" y="12.9" class="st0" width="5.4" height="1.9"/>
<rect x="36.8" y="12.9" class="st0" width="5.4" height="1.9"/>
<rect x="24.7" y="15.9" class="st0" width="8.8" height="1.9"/>
<rect x="34.5" y="15.9" class="st0" width="3" height="1.9"/>
<rect x="38.5" y="15.9" class="st0" width="1.5" height="1.9"/>
<rect x="41" y="15.9" class="st0" width="5.4" height="1.9"/>
<rect x="22.2" y="18.9" class="st0" width="5.4" height="1.9"/>
<rect x="28.5" y="18.9" class="st0" width="6.2" height="1.9"/>
<rect x="35.7" y="18.9" class="st0" width="1.5" height="1.9"/>
<rect x="24.9" y="21.9" class="st0" width="4.6" height="1.9"/>
<rect x="30.4" y="21.9" class="st0" width="5.4" height="1.9"/>
<rect x="36.8" y="21.9" class="st0" width="5.4" height="1.9"/>
</svg>
