<svg id="seo" xmlns="http://www.w3.org/2000/svg" viewBox="0 0 50 50"><defs><style>.cls-1{fill:#697175;}</style></defs><title>service-icon-seo</title><path class="cls-1" d="M57,57H7V12a5,5,0,0,1,5-5H52a5,5,0,0,1,5,5V57ZM9,55H55V12a3,3,0,0,0-3-3H12a3,3,0,0,0-3,3V55ZM27.36,38.74a8.1,8.1,0,0,1-2.69-.46,8.2,8.2,0,1,1,8.49-1.95A8.24,8.24,0,0,1,27.36,38.74Zm0-14.41a6.11,6.11,0,0,0-2,.34,6.2,6.2,0,0,0,0,11.72h0a6.23,6.23,0,0,0,4.45-.16A6.21,6.21,0,0,0,27.36,24.33Z" transform="translate(-7 -7)"/><rect class="cls-1" x="35.27" y="34.04" width="2" height="10.8" transform="translate(-24.27 30.2) rotate(-45)"/><rect class="cls-1" x="1" y="6" width="48" height="2"/><path class="cls-1" d="M26,51H12V19H26v5.44l-0.67.23a6.2,6.2,0,0,0,0,11.72L26,36.63V51ZM14,49H24V38a8.2,8.2,0,0,1,0-15V21H14V49Z" transform="translate(-7 -7)"/><path class="cls-1" d="M27.36,38.74a8.09,8.09,0,0,1-2.69-.46,8.2,8.2,0,1,1,8.49-1.95A8.24,8.24,0,0,1,27.36,38.74Zm0-14.41a6.11,6.11,0,0,0-2,.34A6.15,6.15,0,1,0,27.36,24.33Z" transform="translate(-7 -7)"/><path class="cls-1" d="M52,51H29.18V36.5l0.61-.26a6.2,6.2,0,0,0,0-11.41l-0.61-.26V19H52V51ZM31.18,49H50V21H31.18v2.28a8.2,8.2,0,0,1,0,14.52V49Z" transform="translate(-7 -7)"/><rect class="cls-1" x="26.46" y="17.2" width="14.25" height="2"/><rect class="cls-1" x="27.42" y="21.12" width="13.29" height="2"/><rect class="cls-1" x="26.46" y="25.04" width="14.25" height="2"/><rect class="cls-1" x="26.46" y="28.96" width="14.25" height="2"/><rect class="cls-1" x="26.46" y="32.88" width="14.25" height="2"/><rect class="cls-1" x="26.46" y="36.8" width="14.25" height="2"/><rect class="cls-1" x="16.06" y="3" width="27.94" height="2"/><rect class="cls-1" x="6" y="3" width="2" height="2"/><rect class="cls-1" x="10" y="3" width="2" height="2"/></svg>