<?xml version="1.0" encoding="utf-8"?>
<!-- Generator: Adobe Illustrator 19.2.1, SVG Export Plug-In . SVG Version: 6.00 Build 0)  -->
<svg version="1.1" id="Layer_1" xmlns="http://www.w3.org/2000/svg" xmlns:xlink="http://www.w3.org/1999/xlink" x="0px" y="0px"
	 viewBox="0 0 300 100" style="enable-background:new 0 0 300 100;" xml:space="preserve">
<style type="text/css">
	.st0{fill:#6A787C;}
</style>
<g>
	<g>
		<path class="st0" d="M148.8,24.7c-8.3,0-9.3,8.6-9.3,15.1c0,6.4,1,15.1,9.3,15.1c8.2,0,9.3-8.7,9.3-15.1
			C158.1,33.3,157,24.7,148.8,24.7z"/>
		<path class="st0" d="M12.1,8v62.2h276.1V8H12.1z M39.9,60.9c-5.5,0-9-1.1-10.8-1.6v-6.6c0.8,0.3,6,2.3,10.2,2.3
			c3.6,0,8.2-1,8.2-5.1c0-3-3.7-4.7-6.4-6.5L37.2,41c-3.6-2.3-8-5-8-10.9C29.2,23,35.1,19,43.4,19c4,0,7.1,1.1,9.1,1.4v6.8
			c-1.1-0.5-4.8-2.4-9.2-2.4c-3.3,0-6.6,1.8-6.6,4.3c0,2.8,3.2,4.3,5.8,5.9l3.2,1.9C50,39.5,55,42.2,55,48.8
			C55,57.2,49,60.9,39.9,60.9z M79.7,59.9h-7.1v-40h7.1V59.9z M119.4,27.1c-6.8,0-12.5,3.5-12.5,15.7v17h-7.6v-40h7.6v8.1h0.2
			c1.1-3.2,4.5-9,12.4-9L119.4,27.1L119.4,27.1z M148.8,60.7c-12.1,0-17.7-8.3-17.7-20.9c0-12.8,5.6-21,17.7-21
			c12,0,17.7,8.2,17.7,21C166.5,52.4,160.9,60.7,148.8,60.7z M216.5,59.9h-7.6V38c0-7.4,0-11.5-5.5-11.5c-6.2,0-10.6,8.4-10.6,16.4
			v17h-7.6v-40h7.6v8.6h0.2c1.3-3.4,4.5-9.5,12.7-9.5c9.3,0,10.8,8.2,10.8,13.2L216.5,59.9L216.5,59.9z M264.6,59.9H257v-5h-0.2
			c-1,2.2-4.2,5.9-10.3,5.9c-7.5,0-11.4-4.5-11.4-10.8c0-10.6,11.7-13.1,21.9-13.1v-7c-0.7-3.9-3.3-5.1-6.1-5.1
			c-4.5,0-6.4,2.9-6.4,6.1h-8c0-6.4,3.8-12,15-12c13.1,0,13.1,9.8,13.1,13.5V59.9z"/>
		<path class="st0" d="M243.6,49.8c0,3.1,2.1,5.1,4.4,5.1c5.2,0,9.1-6,9.1-10.7V42h-1.5C249.6,42,243.6,44.6,243.6,49.8z"/>
	</g>
	<polygon class="st0" points="18.5,88.5 17.2,88.5 17.2,80.5 19.6,80.5 19.6,81.7 20.4,81.7 20.4,79.2 19.6,79.2 19.6,79.6 
		12.8,79.6 12.8,79.2 12.1,79.2 12.1,81.7 12.8,81.7 12.8,80.5 15.3,80.5 15.3,88.5 13.9,88.5 13.9,89.1 18.5,89.1 	"/>
	<path class="st0" d="M36.4,88.5h-0.8v-4.3c0-1.2-0.7-1.8-1.9-1.8c-0.9,0-1.4,0.3-2.3,1.2v-5.1h-0.6l-2.1,0.6v0.5h1v8.9h-0.8v0.6
		h3.4v-0.6h-0.9v-4.1c0.9-0.9,1.2-1,1.7-1c0.6,0,0.8,0.3,0.8,1.1v4H33v0.6h3.4V88.5L36.4,88.5z"/>
	<path class="st0" d="M50.7,87.7c-1.1,0.7-1.4,0.8-1.9,0.8c-1.3,0-2.1-1.1-2.1-2.9H51V85c0-1.6-1.1-2.6-2.8-2.6
		c-2,0-3.3,1.4-3.3,3.4s1.3,3.4,3.2,3.4c1,0,1.5-0.2,2.9-1L50.7,87.7L50.7,87.7z M46.7,84.9c0.1-1.1,0.7-1.8,1.5-1.8
		c0.6,0,1,0.6,1,1.5v0.3H46.7L46.7,84.9z"/>
	<path class="st0" d="M75.6,89.1c1.4,0,2.4-0.4,3.3-1.2c1-0.9,1.5-2.2,1.5-3.5c0-2.7-2.1-4.7-4.8-4.7h-4.5v0.6h1.1v8.3h-1.1v0.6h4.5
		V89.1z M74.1,80.4h1.2c1.7,0,3.1,1.8,3.1,3.9c0,2.2-1.4,4-3.2,4H74L74.1,80.4L74.1,80.4z"/>
	<path class="st0" d="M95.5,87.7c-1.1,0.7-1.4,0.8-1.9,0.8c-1.3,0-2.1-1.1-2.1-2.9h4.3V85c0-1.6-1.1-2.6-2.8-2.6
		c-2,0-3.3,1.4-3.3,3.4s1.3,3.4,3.2,3.4c1,0,1.5-0.2,2.9-1L95.5,87.7L95.5,87.7z M91.5,84.9c0.1-1.1,0.7-1.8,1.5-1.8
		c0.6,0,1,0.6,1,1.5v0.3H91.5L91.5,84.9z"/>
	<path class="st0" d="M112.6,88.5h-0.8v-4.3c0-1.2-0.6-1.8-1.9-1.8c-0.9,0-1.4,0.3-2.3,1.2v-1.2H107l-2.1,0.6v0.5h1v5h-0.8v0.6h3.4
		v-0.6h-0.8v-4.1c0.9-0.9,1.2-1,1.7-1c0.6,0,0.8,0.3,0.8,1.1v4h-0.8v0.6h3.4v-0.6H112.6z"/>
	<path class="st0" d="M126.3,88c-0.4,0.3-0.6,0.3-0.9,0.3c-0.2,0-0.4-0.2-0.4-0.4v-0.4v-4.1h1.5v-0.7H125v-2h-1.6v2l-0.9,0.2v0.5
		h0.9v4.4c0,0.9,0.6,1.4,1.5,1.4c0.6,0,1-0.2,1.7-0.8L126.3,88L126.3,88z"/>
	<path class="st0" d="M142.5,88.4h-0.9V84c0-1-0.8-1.6-2.4-1.6c-1.5,0-2.5,0.6-2.5,1.4c0,0.2,0,0.2,0.1,0.4l1.6-0.4v-0.7
		c0.3-0.2,0.5-0.2,0.7-0.2c0.5,0,0.7,0.3,0.7,1v1.5l-2.1,0.5c-0.9,0.2-1.4,0.8-1.4,1.7c0,1,0.7,1.7,1.8,1.7c0.8,0,1.2-0.2,1.7-0.8
		c0.1,0.5,0.3,0.8,0.9,0.8c0.2,0,0.4,0,0.7-0.1l1-0.3L142.5,88.4L142.5,88.4z M139.9,87.8c-0.5,0.4-0.8,0.6-1.1,0.6
		c-0.4,0-0.7-0.4-0.7-0.9v-0.8l1.8-0.4V87.8L139.9,87.8z"/>
	<polygon class="st0" points="155.2,88.5 154.4,88.5 154.4,78.5 153.8,78.5 151.7,79.1 151.7,79.6 152.7,79.6 152.7,88.5 
		151.8,88.5 151.8,89.1 155.2,89.1 	"/>
	<path class="st0" d="M183.4,86.8h-0.8v1.1c-0.7,0.4-1.2,0.6-1.9,0.6c-2,0-3.5-1.8-3.5-4.1c0-2.4,1.4-4,3.4-4c0.8,0,1.2,0.2,2,0.7
		V82h0.8v-2.6h-0.8V80c-0.8-0.4-1.5-0.5-2.4-0.5c-2.9,0-5,2.1-5,4.9c0,2.9,2.1,4.9,5.2,4.9c1.1,0,1.9-0.2,3.1-0.6v-1.9H183.4z"/>
	<path class="st0" d="M197.6,89.3c1.9,0,3.3-1.4,3.3-3.4s-1.4-3.4-3.3-3.4c-1.9,0-3.3,1.4-3.3,3.4C194.3,87.8,195.7,89.3,197.6,89.3
		L197.6,89.3z M197.6,83.1c0.9,0,1.5,1.1,1.5,2.7s-0.6,2.7-1.5,2.7s-1.5-1.1-1.5-2.7C196.1,84.3,196.7,83.1,197.6,83.1L197.6,83.1z"
		/>
	<path class="st0" d="M222.7,88.5h-0.8v-4.3c0-1.1-0.8-1.8-1.9-1.8c-1,0-1.6,0.4-2.4,1.4c-0.2-1-0.8-1.4-1.9-1.4
		c-0.8,0-1.4,0.3-2.3,1.2v-1.1h-0.6l-2.1,0.6v0.5h1v5h-0.8v0.6h3.4v-0.6h-0.8v-4.1c0.7-0.8,1.2-1.1,1.8-1.1s0.8,0.3,0.8,1.1v4h-0.8
		v0.6h3.2v-0.6h-0.8v-4c0.8-0.9,1.2-1.2,1.8-1.2c0.5,0,0.8,0.3,0.8,1.1v4h-0.8V89h3.4v-0.5H222.7z"/>
	<path class="st0" d="M235.7,92h-0.9v-2.8c0.4,0.1,0.5,0.2,0.9,0.2c2.1,0,3.5-1.5,3.5-3.7c0-1.9-1-3.1-2.6-3.1
		c-0.8,0-1.3,0.2-1.8,0.6v-0.6h-0.6l-2.1,0.5v0.4h1V92h-0.8v0.6h3.5L235.7,92L235.7,92z M235.9,83.3c0.9,0,1.5,1,1.5,2.4
		c0,1.7-0.8,2.9-1.8,2.9c-0.6,0-0.7-0.2-0.7-1.2v-3.6C235.3,83.5,235.6,83.3,235.9,83.3L235.9,83.3z"/>
	<path class="st0" d="M255,88.4h-0.9V84c0-1-0.8-1.6-2.4-1.6c-1.5,0-2.5,0.6-2.5,1.4c0,0.2,0,0.2,0.1,0.4l1.6-0.4v-0.7
		c0.3-0.2,0.5-0.2,0.7-0.2c0.5,0,0.7,0.3,0.7,1v1.5l-2.1,0.5c-0.9,0.2-1.4,0.8-1.4,1.7c0,1,0.7,1.7,1.8,1.7c0.8,0,1.2-0.2,1.7-0.8
		c0.1,0.5,0.3,0.8,0.9,0.8c0.2,0,0.4,0,0.7-0.1l1-0.3L255,88.4L255,88.4z M252.4,87.8c-0.5,0.4-0.8,0.6-1.1,0.6
		c-0.4,0-0.7-0.4-0.7-0.9v-0.8l1.8-0.4V87.8L252.4,87.8z"/>
	<path class="st0" d="M272.4,88.5h-0.8v-4.3c0-1.2-0.6-1.8-1.9-1.8c-0.9,0-1.4,0.3-2.3,1.2v-1.2h-0.6l-2.1,0.6v0.5h1v5h-0.8v0.6h3.4
		v-0.6h-0.8v-4.1c0.9-0.9,1.2-1,1.7-1c0.6,0,0.8,0.3,0.8,1.1v4h-1v0.6h3.4V88.5L272.4,88.5z"/>
	<path class="st0" d="M288.2,82.6H286v0.6h0.9l-1.3,3.5l-1.4-3.5h0.7v-0.6h-3v0.6h0.5l2.3,5.7c-0.3,0.8-0.5,1.1-0.9,1.6
		s-0.7,0.8-1.5,1.3l0.9,1c0.3-0.3,0.5-0.6,0.6-0.8c0.5-0.6,1-1.6,1.3-2.6l2.4-6.2h0.6v-0.6H288.2z"/>
</g>
</svg>
