<?xml version="1.0" encoding="utf-8"?>
<!-- Generator: Adobe Illustrator 19.2.1, SVG Export Plug-In . SVG Version: 6.00 Build 0)  -->
<svg version="1.1" id="Layer_1" xmlns="http://www.w3.org/2000/svg" xmlns:xlink="http://www.w3.org/1999/xlink" x="0px" y="0px"
	 viewBox="0 0 300 100" style="enable-background:new 0 0 300 100;" xml:space="preserve">
<style type="text/css">
	.st0{fill:#6A787C;}
</style>
<g>
	<path class="st0" d="M195.8,36.2l-10.5-8.5c0,0,0,0-0.1-0.1l0,0c0,0-0.1-0.1-0.2-0.2c0,0,0,0-0.1-0.1c0,0-0.1-0.1-0.2-0.1
		c0,0-0.1,0-0.1-0.1c0,0-0.1,0-0.1-0.1c-0.1-0.1-0.3-0.2-0.4-0.3l0,0l0,0c-0.2-0.1-0.3-0.2-0.5-0.3c0,0-0.1,0-0.1-0.1
		c0,0-0.1,0-0.1-0.1c-0.2-0.1-0.3-0.2-0.5-0.3c0,0-0.1,0-0.1-0.1c-0.1-0.1-0.3-0.1-0.4-0.2c-0.1-0.1-0.3-0.1-0.4-0.2c0,0,0,0-0.1,0
		c-0.3-0.1-0.6-0.2-0.9-0.3h-0.1l-12-3.7c0.1,0,0.3,0.1,0.4,0.1c0,0,0,0,0.1,0c-1.2-0.4-2.7-0.8-4.6-0.9c-0.2,0-0.5,0-0.7,0
		c-2.9,0.1-5.7,1.9-7.8,3.8l-0.8-0.6l8.1-10.2l-11.3-8.5l-12-3.7l-7,8.2L127,7.9l-7.4,8.9l4.4,3.5l-11.1,14.2
		c-0.1,0.1-6,9.4,0.1,15.8c4.4,4.6,7.7,6.2,9.6,6.7h-0.1l6.7,2.1l-2.4,3.1l12.5,10.2l12,3.7l18-23.1l9.4,2.9l6.6-8.6L178,42
		l11.2,3.5L195.8,36.2z M139.2,71.2L128,62.1l0,0l19.4-25.2l-10.8-8.6l0,0l-0.3,0.3c0,0-0.3,0.4-0.8,1l-0.1,0.1
		c-0.1,0.1-0.2,0.2-0.3,0.4c0,0.1-0.1,0.1-0.1,0.2c-0.3,0.4-0.6,0.8-1,1.3c-0.2,0.2-0.4,0.5-0.6,0.7l-0.1,0.1
		c-0.1,0.2-0.2,0.3-0.4,0.5c-0.5,0.6-1,1.3-1.6,2c-0.1,0.1-0.2,0.2-0.2,0.3c0,0,0,0-0.1,0.1s-0.2,0.3-0.3,0.4
		c-0.3,0.4-0.6,0.7-0.8,1.1c-0.2,0.2-0.4,0.5-0.5,0.7l0,0c-0.1,0.1-0.2,0.2-0.3,0.3c-0.3,0.3-0.5,0.7-0.8,1
		c-0.1,0.2-0.2,0.3-0.4,0.5c-0.7,0.9-1.3,1.6-1.6,2.1c-1.8,2.4-0.6,4.2-0.1,4.8c0.1,0.1,0.2,0.2,0.2,0.2l4.1,2.1l-3,3.6l-3.6,4.4
		c-0.1,0-0.1,0-0.2,0s-0.3-0.1-0.5-0.1h-0.1l0,0H123h-0.1h-0.1l0,0l0,0h-0.1c-0.1,0-0.1,0-0.2-0.1c0,0-0.1,0-0.2-0.1
		c-0.2-0.1-0.4-0.1-0.6-0.2l0,0h-0.1c-0.1-0.1-0.2-0.1-0.4-0.2c-0.2-0.1-0.5-0.2-0.8-0.4c-0.2-0.1-0.3-0.2-0.5-0.3
		c-0.1-0.1-0.2-0.1-0.3-0.2c-0.1-0.1-0.3-0.2-0.4-0.3c0,0,0,0-0.1,0l-0.1-0.1c-0.1,0-0.1-0.1-0.2-0.1c-0.1-0.1-0.3-0.2-0.4-0.3
		s-0.3-0.2-0.4-0.3s-0.2-0.2-0.4-0.3l0,0c-0.2-0.2-0.5-0.4-0.7-0.6c-0.1-0.1-0.2-0.2-0.3-0.2c-0.4-0.3-0.8-0.7-1.1-1
		c-0.2-0.2-0.3-0.3-0.5-0.5c-0.1-0.1-0.3-0.3-0.4-0.4l0,0c-0.3-0.3-0.6-0.6-0.9-1c-0.1-0.1-0.1-0.1-0.1-0.2
		c-0.2-0.2-0.4-0.4-0.5-0.6c0-0.1-0.1-0.1-0.1-0.1l0,0l0,0l0,0c0,0,0-0.1-0.1-0.1c0,0,0-0.1-0.1-0.1c0-0.1-0.1-0.1-0.1-0.2
		c-0.1-0.2-0.3-0.4-0.4-0.7v-0.1c-0.1-0.3-0.3-0.5-0.4-0.8c0-0.1,0-0.1-0.1-0.2v-0.1c-0.1-0.3-0.2-0.5-0.2-0.8v-0.1c0,0,0,0,0-0.1
		c-0.1-0.3-0.1-0.6-0.1-0.9v-0.1v-0.1c0-0.4,0-0.7,0-1.1v-0.1l0,0l0,0c0-0.9,0.1-1.8,0.4-2.7c0.4-1.6,0.9-2.9,1.4-3.8
		c0-0.1,0.1-0.2,0.1-0.3s0.1-0.1,0.1-0.2l0,0c0.1-0.1,0.1-0.3,0.2-0.4c0,0,0,0,0-0.1c0.1-0.1,0.1-0.2,0.2-0.3l0,0c0,0,0,0,0-0.1
		c0,0,0,0,0-0.1l11.7-15l-4.4-3.5l6.2-7.5l4.7,3.8l0,0L140.7,3l9.9,7.4l-6.5,8.1l-1.6,2l11,9l0.3-0.4c0,0,0.1-0.2,0.4-0.5
		c0,0,0.1-0.1,0.1-0.2l0,0c0-0.1,0.1-0.1,0.1-0.2c0.1-0.1,0.1-0.2,0.2-0.3l0,0c0.1-0.1,0.1-0.1,0.2-0.2c0.1-0.1,0.1-0.1,0.2-0.2
		c0,0,0,0,0.1-0.1s0.3-0.3,0.4-0.4c0.3-0.3,0.6-0.6,0.9-0.9l0,0l0,0c0.1-0.1,0.1-0.1,0.2-0.2l0.1-0.1l0.1-0.1
		c0.1-0.1,0.3-0.3,0.4-0.4l0.1-0.1l0,0c0.4-0.3,0.8-0.7,1.2-1c0.3-0.2,0.6-0.4,0.9-0.6c1.5-1,3.1-1.7,4.8-1.7c0.2,0,0.4,0,0.6,0
		c5.6,0.5,8,2.9,8.1,2.9l9.8,8l-5.4,7.7l-4.9-5.1c0,0,0,0-0.1-0.1l0,0l0,0c0,0,0-0.1-0.1-0.1l0,0l0,0l0,0c0,0-0.1-0.1-0.2-0.1l0,0
		l0,0l0,0c-0.1-0.1-0.2-0.1-0.3-0.2l0,0l0,0l0,0c0,0,0,0-0.1,0s-0.2-0.1-0.3-0.1l0,0l0,0c-0.1,0-0.2-0.1-0.4-0.1c-0.1,0-0.1,0-0.1,0
		h-0.1l0,0c-0.2,0-0.3-0.1-0.5-0.1c-0.1,0-0.1,0-0.2,0c-0.2,0-0.5,0-0.7,0l0,0c-0.2,0-0.4,0-0.6,0c-1.9,0.1-3,1.5-3.6,2.5
		c-0.4,0.6-0.5,1.1-0.6,1.1l-0.1,0.3l7.7,5.6l-5.4,7.1l-7.3-5.5L139.2,71.2z"/>
	<g id="TOOLFARM_-_Dk_Grey_-_Avenir_Next_Regular_100pt">
		<path class="st0" d="M96.4,97.3h-1.7V81.8H89v-1.5h13.1v1.5h-5.7V97.3z"/>
		<path class="st0" d="M120.3,88.8c0,1.3-0.2,2.5-0.7,3.6c-0.4,1.1-1.1,2-1.9,2.8s-1.7,1.4-2.8,1.9c-1.1,0.4-2.3,0.7-3.5,0.7
			c-1.3,0-2.4-0.2-3.5-0.7c-1.1-0.4-2-1.1-2.8-1.9s-1.4-1.7-1.9-2.8c-0.4-1.1-0.7-2.3-0.7-3.6c0-1.3,0.2-2.5,0.7-3.6
			c0.4-1.1,1.1-2,1.9-2.8s1.7-1.4,2.8-1.9c1.1-0.4,2.3-0.7,3.5-0.7c1.3,0,2.4,0.2,3.5,0.7c1.1,0.4,2,1.1,2.8,1.9s1.4,1.7,1.9,2.8
			C120.1,86.3,120.3,87.5,120.3,88.8z M118.5,88.8c0-1-0.2-1.9-0.5-2.8s-0.8-1.7-1.4-2.4c-0.6-0.7-1.3-1.2-2.2-1.6
			c-0.9-0.4-1.9-0.6-2.9-0.6c-1.1,0-2.1,0.2-2.9,0.6c-0.9,0.4-1.6,0.9-2.2,1.6s-1.1,1.5-1.4,2.4s-0.5,1.8-0.5,2.8s0.2,1.9,0.5,2.8
			s0.8,1.7,1.4,2.4c0.6,0.7,1.3,1.2,2.2,1.6c0.9,0.4,1.9,0.6,2.9,0.6c1.1,0,2.1-0.2,2.9-0.6c0.9-0.4,1.6-0.9,2.2-1.6
			s1.1-1.5,1.4-2.4C118.3,90.7,118.5,89.8,118.5,88.8z"/>
		<path class="st0" d="M140.2,88.8c0,1.3-0.2,2.5-0.7,3.6c-0.4,1.1-1.1,2-1.9,2.8c-0.8,0.8-1.7,1.4-2.8,1.9
			c-1.1,0.4-2.3,0.7-3.5,0.7c-1.3,0-2.4-0.2-3.5-0.7c-1.1-0.4-2-1.1-2.8-1.9s-1.4-1.7-1.9-2.8c-0.4-1.1-0.7-2.3-0.7-3.6
			c0-1.3,0.2-2.5,0.7-3.6c0.4-1.1,1.1-2,1.9-2.8s1.7-1.4,2.8-1.9c1.1-0.4,2.3-0.7,3.5-0.7c1.3,0,2.4,0.2,3.5,0.7
			c1.1,0.4,2,1.1,2.8,1.9s1.4,1.7,1.9,2.8C140,86.3,140.2,87.5,140.2,88.8z M138.4,88.8c0-1-0.2-1.9-0.5-2.8s-0.8-1.7-1.4-2.4
			c-0.6-0.7-1.3-1.2-2.2-1.6s-1.9-0.6-2.9-0.6c-1.1,0-2.1,0.2-2.9,0.6c-0.9,0.4-1.6,0.9-2.2,1.6s-1.1,1.5-1.4,2.4s-0.5,1.8-0.5,2.8
			s0.2,1.9,0.5,2.8s0.8,1.7,1.4,2.4c0.6,0.7,1.3,1.2,2.2,1.6s1.9,0.6,2.9,0.6c1.1,0,2.1-0.2,2.9-0.6c0.9-0.4,1.6-0.9,2.2-1.6
			c0.6-0.7,1.1-1.5,1.4-2.4C138.2,90.7,138.4,89.8,138.4,88.8z"/>
		<path class="st0" d="M145.1,95.7h7.9v1.5h-9.7v-17h1.7v15.5H145.1z"/>
		<path class="st0" d="M156.8,97.3h-1.7v-17h10.3v1.5h-8.5v5.9h7.9v1.5h-7.9v8.1H156.8z"/>
		<path class="st0" d="M166.7,97.3h-1.9l7.4-17h1.7l7.3,17h-1.9l-1.9-4.5h-8.8L166.7,97.3z M169.2,91.2h7.5l-3.7-9L169.2,91.2z"/>
		<path class="st0" d="M184.9,97.3h-1.7v-17h5c0.8,0,1.6,0.1,2.3,0.2c0.7,0.2,1.3,0.4,1.8,0.8s0.9,0.8,1.2,1.4s0.4,1.3,0.4,2.1
			c0,0.6-0.1,1.2-0.3,1.7s-0.5,1-0.9,1.3c-0.4,0.4-0.8,0.7-1.4,0.9c-0.5,0.2-1.1,0.4-1.7,0.4l5,8.1h-2.1l-4.7-8h-2.9L184.9,97.3
			L184.9,97.3z M184.9,87.8h3c1.4,0,2.5-0.3,3.2-0.8c0.8-0.5,1.1-1.3,1.1-2.3c0-0.6-0.1-1-0.3-1.4s-0.5-0.7-0.9-0.9
			c-0.4-0.2-0.8-0.4-1.3-0.5s-1.1-0.2-1.8-0.2h-3.1v6.1H184.9z"/>
		<path class="st0" d="M205.5,94.3L205.5,94.3l5.7-14.1h2.6v17h-1.7V82.5l0,0l-6.2,14.8H205l-6.2-14.8l0,0v14.8h-1.7v-17h2.6
			L205.5,94.3z"/>
	</g>
</g>
</svg>
