<?xml version="1.0" encoding="utf-8"?>
<!-- Generator: Adobe Illustrator 19.1.0, SVG Export Plug-In . SVG Version: 6.00 Build 0)  -->
<svg version="1.1" id="logoindex" xmlns="http://www.w3.org/2000/svg" xmlns:xlink="http://www.w3.org/1999/xlink" x="0px" y="0px"
	 viewBox="0 0 507.6 99.3" style="enable-background:new 0 0 507.6 99.3;" xml:space="preserve">
<style type="text/css">
	.st0{fill:#697175;}
	.st1{opacity:0.75;}
	.st2{fill:#BDD436;}
</style>
<g>
	<g>
		<g>
			<path class="st0" d="M121.5,0.6h10.8l10.6,47.8h0.2l13-47.8h7.4l13,47.8h0.2l10.6-47.8h10.8l-16.8,67.2h-8.5l-12.8-48.4h-0.2
				l-12.8,48.4h-8.5L121.5,0.6z"/>
			<path class="st0" d="M216.1,10.2h-9.6V0.6 M206.4,19.9h9.6v47.9h-9.6V19.9z"/>
			<path class="st0" d="M254.6,62.8c-3,3.3-7.5,5.6-12.4,5.6c-5.9,0-10.1-2.6-12.8-6.2c-2.6-3.4-3.4-6.5-3.4-18.3
				c0-11.7,0.8-14.8,3.4-18.2c2.7-3.6,7-6.2,12.8-6.2c4.9,0,8.8,2.3,12.4,5.7V0.6h9.6v67.2h-9.6V62.8z M235.6,43.8
				c0,7.5,0.5,14.9,9.5,14.9c9,0,9.4-7.9,9.4-14.9c0-6.9-0.5-14.8-9.4-14.8C236.1,29,235.6,36.4,235.6,43.8z"/>
			<path class="st0" d="M281.3,47.5c0,7.8,4.8,11.8,11.4,11.8c3.7,0,7.6-1.7,10.5-4.6l7,6c-4.7,5.5-10.9,7.7-17.3,7.7
				c-9.8,0-21.2-4.7-21.2-24.4c0-18.6,10.5-24.6,19.7-24.6c10.6,0,19.7,7.8,19.7,20.2v7.9H281.3z M301.5,39.6
				c-0.3-7.3-4.4-11.1-10.1-11.1c-5.7,0-9.9,3.9-10.1,11.1H301.5z"/>
			<path class="st0" d="M327.5,12.1C330.7,6.2,338,0,348.5,0c10.6,0,17.8,6.2,21.1,12.1c2.2,4,2.9,5.9,2.9,22.1
				c0,16.1-0.8,18.1-2.9,22.1c-3.2,5.9-10.5,12.1-21.1,12.1c-10.6,0-17.8-6.2-21.1-12.1c-2.2-4-2.9-6-2.9-22.1
				C324.6,18,325.3,16.1,327.5,12.1z M338.2,53.3c2.1,2.6,5.6,4.9,10.4,4.9c4.8,0,8.3-2.3,10.4-4.9c2.6-3.4,3.4-5.3,3.4-19.1
				c0-13.8-0.8-15.7-3.4-19.1c-2.1-2.6-5.6-4.9-10.4-4.9c-4.8,0-8.3,2.3-10.4,4.9c-2.6,3.4-3.4,5.3-3.4,19.1
				C334.8,48,335.5,49.9,338.2,53.3z"/>
			<path class="st0" d="M378.8,19.9h9.6v5c3-3.3,7.5-5.6,12.4-5.6c5.9,0,10.1,2.6,12.8,6.2c2.6,3.4,3.4,6.5,3.4,18.3
				c0,11.7-0.8,14.8-3.4,18.2c-2.7,3.6-7,6.2-12.8,6.2c-4.9,0-8.8-2.3-12.4-5.7v24.5h-9.6V19.9z M407.5,43.9
				c0-7.5-0.5-14.9-9.5-14.9c-9,0-9.4,7.9-9.4,14.9c0,6.9,0.5,14.8,9.4,14.8C407,58.7,407.5,51.3,407.5,43.9z"/>
			<path class="st0" d="M432.3,47.5c0,7.8,4.8,11.8,11.4,11.8c3.7,0,7.6-1.7,10.5-4.6l7,6c-4.7,5.5-10.9,7.7-17.3,7.7
				c-9.8,0-21.2-4.7-21.2-24.4c0-18.6,10.5-24.6,19.7-24.6c10.6,0,19.7,7.8,19.7,20.2v7.9H432.3z M452.5,39.6
				c-0.3-7.3-4.4-11.1-10.1-11.1c-5.7,0-9.9,3.9-10.1,11.1H452.5z"/>
			<path class="st0" d="M469.4,19.9h9.6V25h0.2c3-3.8,7.4-5.7,12.5-5.7c7.5,0,16,5.8,16,16.6v31.8H498V39.3c0-6.5-4.1-10.3-9.4-10.3
				c-5.5,0-9.5,3.8-9.5,10.3v28.5h-9.6V19.9z"/>
		</g>
	</g>
	<g class="st1">
		<path class="st0" d="M130.1,82.3h-5.3v-2.6h13.6v2.6H133v16.8h-3V82.3z"/>
		<path class="st0" d="M145.9,79.7h12.4v2.8h-9.5v5.6h8.1v2.6h-8.1v5.7h9.5v2.8h-12.4V79.7z"/>
		<path class="st0" d="M179.7,93.7c-0.8,3.6-3.5,5.6-6.8,5.6c-3.1,0-5.2-1.8-6.1-3.5c-0.6-1.1-0.8-1.7-0.8-6.4
			c0-4.7,0.2-5.2,0.8-6.4c0.9-1.7,3-3.5,6.1-3.5c3.7,0,6.2,2.6,6.8,5.8h-3.1c-0.5-1.5-1.9-2.8-3.7-2.8c-1.4,0-2.4,0.7-3,1.4
			c-0.8,1-1,1.5-1,5.5c0,4,0.2,4.5,1,5.5c0.6,0.8,1.6,1.4,3,1.4c1.6,0,2.9-0.9,3.7-2.7H179.7z"/>
		<path class="st0" d="M197.9,90.7h-7.7v8.5h-3V79.7h3v8.3h7.7v-8.3h3v19.5h-3V90.7z"/>
		<path class="st0" d="M210.4,79.7h2.8l8.8,13.8h0.1V79.7h2.9v19.5h-2.8l-8.8-13.8h-0.1v13.8h-2.9V79.7z"/>
		<path class="st0" d="M234.7,83c0.9-1.7,3-3.5,6.1-3.5c3.1,0,5.2,1.8,6.1,3.5c0.6,1.1,0.8,1.7,0.8,6.4c0,4.7-0.2,5.3-0.8,6.4
			c-0.9,1.7-3,3.5-6.1,3.5c-3.1,0-5.2-1.8-6.1-3.5c-0.6-1.1-0.8-1.7-0.8-6.4C233.9,84.8,234.1,84.2,234.7,83z M237.8,95
			c0.6,0.8,1.6,1.4,3,1.4c1.4,0,2.4-0.7,3-1.4c0.8-1,1-1.5,1-5.5c0-4-0.2-4.5-1-5.5c-0.6-0.8-1.6-1.4-3-1.4c-1.4,0-2.4,0.7-3,1.4
			c-0.8,1-1,1.5-1,5.5C236.8,93.4,237.1,94,237.8,95z"/>
		<path class="st0" d="M256.7,79.7h3v16.7h9.5v2.8h-12.4V79.7z"/>
		<path class="st0" d="M277.5,83c0.9-1.7,3-3.5,6.1-3.5c3.1,0,5.2,1.8,6.1,3.5c0.6,1.1,0.8,1.7,0.8,6.4c0,4.7-0.2,5.3-0.8,6.4
			c-0.9,1.7-3,3.5-6.1,3.5c-3.1,0-5.2-1.8-6.1-3.5c-0.6-1.1-0.8-1.7-0.8-6.4C276.7,84.8,276.9,84.2,277.5,83z M280.6,95
			c0.6,0.8,1.6,1.4,3,1.4c1.4,0,2.4-0.7,3-1.4c0.8-1,1-1.5,1-5.5c0-4-0.2-4.5-1-5.5c-0.6-0.8-1.6-1.4-3-1.4c-1.4,0-2.4,0.7-3,1.4
			c-0.8,1-1,1.5-1,5.5C279.6,93.4,279.8,94,280.6,95z"/>
		<path class="st0" d="M305.8,88.5h6.9v4c0,3.9-3.1,6.9-6.9,6.9c-3.1,0-5.2-1.8-6.1-3.5c-0.6-1.1-0.8-1.7-0.8-6.4
			c0-4.7,0.2-5.2,0.8-6.4c0.9-1.7,3-3.5,6.1-3.5c3.7,0,6.2,2.6,6.8,5.8h-3.1c-0.5-1.5-1.9-2.8-3.7-2.8c-1.4,0-2.4,0.7-3,1.4
			c-0.8,1-1,1.5-1,5.5c0,4,0.2,4.5,1,5.5c0.6,0.8,1.6,1.4,3,1.4c2.2,0,4-1.7,4-4.1v-1h-4V88.5z"/>
		<path class="st0" d="M321.6,79.7h2.9v19.5h-2.9V79.7z"/>
		<path class="st0" d="M334.1,79.7h12.4v2.8h-9.5v5.6h8.1v2.6h-8.1v5.7h9.5v2.8h-12.4V79.7z"/>
		<path class="st0" d="M355,94.4c1.5,1.2,3.4,1.9,5.5,1.9c2.4,0,3.9-1.1,3.9-2.7c0-1.4-0.8-2.4-2.5-2.6c-0.9-0.1-1.6-0.2-2.6-0.4
			c-3.4-0.5-5.2-2.6-5.2-5.5c0-3.3,2.3-5.7,6.3-5.7c2.4,0,4.5,0.9,6.3,2l-1.6,2.4c-1.4-0.9-3.1-1.5-4.8-1.5c-1.8,0-3.2,0.9-3.2,2.8
			c0,1.1,0.8,2.2,2.8,2.5c0.5,0.1,1.3,0.2,2.2,0.3c3.6,0.4,5.3,2.9,5.3,5.6c0,3.6-2.7,5.7-6.8,5.7c-2.9,0-5.4-0.9-7.4-2.7L355,94.4z
			"/>
	</g>
	<path class="st2" d="M89.7,0.4H8.8C3.9,0.4,0,4.3,0,9.2v80.9c0,4.8,3.9,8.8,8.8,8.8h80.9c4.9,0,8.8-3.9,8.8-8.8V9.2
		C98.5,4.3,94.6,0.4,89.7,0.4z M24.4,74.9H12.6V24.1h12v50.9h18.8l0.1,10.3L24.4,74.9z M86.6,74.9h-12l0.1,10.3L55.5,74.9h-12V24.1
		h12v50.9h19V24.1h12V74.9z"/>
</g>
</svg>
